<svg width="112" height="42" viewBox="0 0 112 42" fill="none" xmlns="http://www.w3.org/2000/svg">
<g clip-path="url(#clip0_326_318)">
<rect x="0.532715" y="0.866911" width="111.467" height="40.2667" rx="6.75559" fill="url(#paint0_linear_326_318)"/>
<path d="M23.6629 21.5291C23.654 20.0063 24.3439 18.8586 25.7372 18.0124C24.958 16.8959 23.779 16.2819 22.225 16.1636C20.7535 16.0475 19.1437 17.021 18.5542 17.021C17.9312 17.021 16.5067 16.2038 15.3858 16.2038C13.0726 16.2395 10.6143 18.0481 10.6143 21.7278C10.6143 22.8152 10.813 23.9383 11.2104 25.0949C11.7418 26.6177 13.6576 30.3487 15.656 30.2885C16.701 30.2639 17.44 29.5472 18.7998 29.5472C20.1194 29.5472 20.8027 30.2885 21.9682 30.2885C23.9845 30.2594 25.7171 26.8678 26.2217 25.3405C23.5178 24.0656 23.6629 21.6072 23.6629 21.5291ZM21.3162 14.7189C22.4483 13.3748 22.3456 12.1512 22.3121 11.7113C21.3118 11.7694 20.1551 12.3923 19.4965 13.1582C18.7708 13.9799 18.3443 14.9958 18.4359 16.1412C19.5166 16.2239 20.5035 15.6679 21.3162 14.7189Z" fill="white"/>
<path opacity="0.72" d="M39.2232 16.6225V10.5171C39.2429 10.5171 39.302 10.5185 39.4006 10.5214C39.5019 10.5214 39.6243 10.5214 39.7679 10.5214C39.9115 10.5185 40.0606 10.5185 40.2155 10.5214C40.3703 10.5214 40.5124 10.5228 40.6419 10.5256C41.3906 10.5368 41.9972 10.6593 42.4617 10.8929C42.929 11.1237 43.271 11.4601 43.4877 11.902C43.7073 12.344 43.817 12.8872 43.817 13.5318C43.817 14.2074 43.6988 14.7746 43.4624 15.2334C43.2287 15.6922 42.8712 16.0384 42.3899 16.2721C41.9114 16.5057 41.302 16.6225 40.5617 16.6225H39.2232ZM40.0255 15.9512H40.5617C41.0655 15.9512 41.499 15.8738 41.8621 15.7189C42.2252 15.5613 42.5039 15.3066 42.6981 14.9547C42.8952 14.6029 42.9937 14.1328 42.9937 13.5445C42.9937 12.9562 42.898 12.4903 42.7066 12.1469C42.518 11.8035 42.2449 11.5586 41.8875 11.4123C41.53 11.2631 41.0993 11.1885 40.5955 11.1885H40.0255V15.9512ZM46.6659 16.7069C46.2633 16.7069 45.9115 16.6211 45.6103 16.4494C45.3119 16.2749 45.0797 16.0201 44.9136 15.6852C44.7476 15.3502 44.6645 14.9406 44.6645 14.4565C44.6645 14.0005 44.7419 13.6008 44.8967 13.2574C45.0516 12.914 45.2781 12.648 45.5765 12.4594C45.8749 12.268 46.2394 12.1723 46.6701 12.1723C47.0726 12.1723 47.4216 12.2609 47.7172 12.4383C48.0128 12.6128 48.2422 12.8703 48.4054 13.2109C48.5715 13.5515 48.6545 13.9667 48.6545 14.4565C48.6545 14.9012 48.5785 15.2925 48.4265 15.6303C48.2745 15.9681 48.0508 16.2326 47.7552 16.4241C47.4625 16.6127 47.0993 16.7069 46.6659 16.7069ZM46.6701 16.0905C46.929 16.0905 47.1486 16.0244 47.3288 15.8921C47.5089 15.7598 47.6454 15.5698 47.7383 15.3221C47.834 15.0743 47.8819 14.7802 47.8819 14.4396C47.8819 14.1272 47.8396 13.8471 47.7552 13.5994C47.6736 13.3489 47.5441 13.1504 47.3668 13.004C47.1894 12.8577 46.9572 12.7845 46.6701 12.7845C46.4055 12.7845 46.1817 12.8506 45.9987 12.9829C45.8158 13.1124 45.6764 13.301 45.5807 13.5487C45.4879 13.7964 45.4414 14.0934 45.4414 14.4396C45.4414 14.7464 45.4822 15.0251 45.5639 15.2756C45.6483 15.5261 45.7806 15.7246 45.9607 15.8709C46.1437 16.0173 46.3802 16.0905 46.6701 16.0905ZM50.5596 16.6225L49.2084 12.2567H49.9347L50.9311 15.6134H50.9987L51.9825 12.2567H52.5736L53.5954 15.6049H53.6671L54.6214 12.2567H55.356L54.0302 16.6225H53.2618L52.2696 13.4009L51.3196 16.6225H50.5596ZM56.2239 16.6225V12.2567H56.9797V12.89C57.0501 12.769 57.1472 12.655 57.271 12.548C57.3977 12.4411 57.5497 12.3552 57.727 12.2905C57.9072 12.2257 58.1141 12.1934 58.3477 12.1934C58.6235 12.1934 58.8769 12.2483 59.1077 12.358C59.3413 12.4678 59.5271 12.6395 59.665 12.8731C59.8058 13.104 59.8761 13.4023 59.8761 13.7683V16.6225H59.095V13.8443C59.095 13.5037 59.005 13.2517 58.8248 13.0885C58.6475 12.9224 58.4167 12.8394 58.1324 12.8394C57.9353 12.8394 57.7509 12.8717 57.5792 12.9365C57.4075 12.9984 57.2682 13.0941 57.1612 13.2236C57.0543 13.3503 57.0008 13.5107 57.0008 13.7049V16.6225H56.2239ZM62.1996 16.6774C61.9632 16.6774 61.7718 16.645 61.6254 16.5803C61.4818 16.5155 61.3707 16.4283 61.2918 16.3185C61.2158 16.2087 61.1638 16.0835 61.1356 15.9427C61.1103 15.7992 61.0976 15.6514 61.0976 15.4994V10.3482H61.8661V15.4234C61.8661 15.6429 61.9083 15.8076 61.9927 15.9174C62.08 16.0272 62.201 16.0877 62.3559 16.0989L62.5923 16.1032V16.6098C62.5276 16.6295 62.46 16.645 62.3896 16.6563C62.3193 16.6704 62.2559 16.6774 62.1996 16.6774ZM65.1959 16.7069C64.7934 16.7069 64.4415 16.6211 64.1403 16.4494C63.842 16.2749 63.6098 16.0201 63.4437 15.6852C63.2776 15.3502 63.1946 14.9406 63.1946 14.4565C63.1946 14.0005 63.272 13.6008 63.4268 13.2574C63.5816 12.914 63.8082 12.648 64.1066 12.4594C64.4049 12.268 64.7695 12.1723 65.2001 12.1723C65.6027 12.1723 65.9517 12.2609 66.2472 12.4383C66.5428 12.6128 66.7722 12.8703 66.9355 13.2109C67.1015 13.5515 67.1846 13.9667 67.1846 14.4565C67.1846 14.9012 67.1086 15.2925 66.9566 15.6303C66.8046 15.9681 66.5808 16.2326 66.2852 16.4241C65.9925 16.6127 65.6294 16.7069 65.1959 16.7069ZM65.2001 16.0905C65.4591 16.0905 65.6787 16.0244 65.8588 15.8921C66.0389 15.7598 66.1755 15.5698 66.2684 15.3221C66.3641 15.0743 66.4119 14.7802 66.4119 14.4396C66.4119 14.1272 66.3697 13.8471 66.2852 13.5994C66.2036 13.3489 66.0741 13.1504 65.8968 13.004C65.7195 12.8577 65.4872 12.7845 65.2001 12.7845C64.9355 12.7845 64.7118 12.8506 64.5288 12.9829C64.3458 13.1124 64.2065 13.301 64.1108 13.5487C64.0179 13.7964 63.9715 14.0934 63.9715 14.4396C63.9715 14.7464 64.0123 15.0251 64.0939 15.2756C64.1783 15.5261 64.3106 15.7246 64.4908 15.8709C64.6738 16.0173 64.9102 16.0905 65.2001 16.0905ZM69.3976 16.7069C69.1133 16.7069 68.8628 16.6577 68.6461 16.5592C68.4321 16.4578 68.2633 16.3129 68.1394 16.1243C68.0184 15.9357 67.9578 15.7077 67.9578 15.4403C67.9578 14.9561 68.1267 14.5958 68.4645 14.3594C68.8023 14.1229 69.3442 13.9963 70.0901 13.9794L70.867 13.9583V13.6163C70.867 13.3489 70.7868 13.1377 70.6263 12.9829C70.4659 12.8253 70.2182 12.7465 69.8832 12.7465C69.6327 12.7493 69.4117 12.8084 69.2203 12.9238C69.0289 13.0392 68.9064 13.2278 68.853 13.4896H68.1647C68.1816 13.2053 68.2604 12.966 68.4012 12.7718C68.5447 12.5748 68.746 12.4256 69.005 12.3243C69.2639 12.2229 69.5693 12.1723 69.9212 12.1723C70.3012 12.1723 70.6165 12.2257 70.867 12.3327C71.1203 12.4397 71.3089 12.5973 71.4328 12.8056C71.5594 13.0139 71.6228 13.27 71.6228 13.574V16.6225H70.9556L70.8965 15.8034C70.7305 16.144 70.5165 16.3804 70.2548 16.5127C69.9958 16.6422 69.7101 16.7069 69.3976 16.7069ZM69.6299 16.1454C69.779 16.1454 69.9254 16.1186 70.069 16.0652C70.2153 16.0117 70.3476 15.9399 70.4659 15.8498C70.5869 15.7569 70.684 15.6542 70.7572 15.5416C70.8304 15.4262 70.867 15.308 70.867 15.1869V14.4396L70.221 14.4523C69.886 14.4579 69.6073 14.4917 69.385 14.5536C69.1626 14.6155 68.9951 14.7126 68.8825 14.8449C68.7699 14.9772 68.7136 15.1503 68.7136 15.3643C68.7136 15.6092 68.7995 15.8006 68.9712 15.9385C69.1429 16.0764 69.3624 16.1454 69.6299 16.1454ZM74.4325 16.7069C73.8639 16.7069 73.4136 16.5127 73.0814 16.1243C72.7521 15.7358 72.5874 15.1686 72.5874 14.4227C72.5874 13.9695 72.6536 13.574 72.7859 13.2363C72.9182 12.8985 73.1166 12.6367 73.3812 12.4509C73.6458 12.2651 73.9751 12.1723 74.3692 12.1723C74.5803 12.1723 74.7661 12.199 74.9265 12.2525C75.087 12.306 75.2263 12.3735 75.3445 12.4551C75.4628 12.5368 75.5585 12.6212 75.6316 12.7085C75.7076 12.7957 75.7639 12.876 75.8005 12.9491V10.3482H76.5901V16.6225H75.9905L75.9061 15.7274C75.8779 15.8118 75.8329 15.9104 75.771 16.0229C75.7091 16.1327 75.6218 16.2411 75.5092 16.3481C75.3994 16.4522 75.2559 16.5381 75.0785 16.6056C74.9012 16.6732 74.6859 16.7069 74.4325 16.7069ZM74.5719 16.1074C75.011 16.1074 75.3248 15.9737 75.5134 15.7063C75.7048 15.4361 75.8005 14.9955 75.8005 14.3847C75.7977 14.0441 75.7555 13.7542 75.6739 13.5149C75.5922 13.2757 75.4628 13.0941 75.2854 12.9703C75.1109 12.8436 74.8773 12.7803 74.5845 12.7803C74.227 12.7803 73.9357 12.9083 73.7105 13.1645C73.4853 13.4206 73.3727 13.8274 73.3727 14.3847C73.3727 14.9308 73.4741 15.3544 73.6767 15.6556C73.8794 15.9568 74.1778 16.1074 74.5719 16.1074ZM81.5736 16.7069C81.1711 16.7069 80.8192 16.6211 80.518 16.4494C80.2197 16.2749 79.9874 16.0201 79.8214 15.6852C79.6553 15.3502 79.5723 14.9406 79.5723 14.4565C79.5723 14.0005 79.6497 13.6008 79.8045 13.2574C79.9593 12.914 80.1859 12.648 80.4843 12.4594C80.7826 12.268 81.1472 12.1723 81.5778 12.1723C81.9803 12.1723 82.3294 12.2609 82.6249 12.4383C82.9205 12.6128 83.1499 12.8703 83.3132 13.2109C83.4792 13.5515 83.5623 13.9667 83.5623 14.4565C83.5623 14.9012 83.4863 15.2925 83.3343 15.6303C83.1823 15.9681 82.9585 16.2326 82.6629 16.4241C82.3702 16.6127 82.0071 16.7069 81.5736 16.7069ZM81.5778 16.0905C81.8368 16.0905 82.0563 16.0244 82.2365 15.8921C82.4166 15.7598 82.5532 15.5698 82.6461 15.3221C82.7418 15.0743 82.7896 14.7802 82.7896 14.4396C82.7896 14.1272 82.7474 13.8471 82.6629 13.5994C82.5813 13.3489 82.4518 13.1504 82.2745 13.004C82.0972 12.8577 81.8649 12.7845 81.5778 12.7845C81.3132 12.7845 81.0895 12.8506 80.9065 12.9829C80.7235 13.1124 80.5842 13.301 80.4885 13.5487C80.3956 13.7964 80.3492 14.0934 80.3492 14.4396C80.3492 14.7464 80.39 15.0251 80.4716 15.2756C80.556 15.5261 80.6883 15.7246 80.8685 15.8709C81.0515 16.0173 81.2879 16.0905 81.5778 16.0905ZM84.6004 16.6225V12.2567H85.3561V12.89C85.4265 12.769 85.5236 12.655 85.6475 12.548C85.7741 12.4411 85.9261 12.3552 86.1035 12.2905C86.2836 12.2257 86.4905 12.1934 86.7241 12.1934C87 12.1934 87.2533 12.2483 87.4842 12.358C87.7178 12.4678 87.9036 12.6395 88.0415 12.8731C88.1822 13.104 88.2526 13.4023 88.2526 13.7683V16.6225H87.4715V13.8443C87.4715 13.5037 87.3814 13.2517 87.2013 13.0885C87.0239 12.9224 86.7931 12.8394 86.5088 12.8394C86.3118 12.8394 86.1274 12.8717 85.9557 12.9365C85.784 12.9984 85.6447 13.0941 85.5377 13.2236C85.4307 13.3503 85.3773 13.5107 85.3773 13.7049V16.6225H84.6004ZM93.1277 16.6436C92.8265 16.6436 92.5929 16.6028 92.4268 16.5212C92.2607 16.4395 92.1439 16.3185 92.0764 16.1581C92.0116 15.9976 91.9793 15.8006 91.9793 15.5669V12.8267H91.2699V12.2567H92.0004L92.1904 10.9858H92.7646V12.2525H93.7484V12.8267H92.7646V15.5416C92.7646 15.6964 92.7801 15.8104 92.811 15.8836C92.8448 15.954 92.8997 15.999 92.9757 16.0187C93.0517 16.0384 93.1587 16.0483 93.2966 16.0483H93.7737V16.5718C93.7202 16.5915 93.6386 16.6084 93.5288 16.6225C93.4219 16.6366 93.2882 16.6436 93.1277 16.6436ZM94.8096 16.6225V10.3482H95.5696V12.8985C95.6428 12.7774 95.7413 12.6649 95.8652 12.5607C95.989 12.4537 96.1396 12.3679 96.317 12.3031C96.4943 12.2356 96.6998 12.2018 96.9334 12.2018C97.2177 12.2018 97.4753 12.2553 97.7061 12.3623C97.9369 12.4664 98.1199 12.6156 98.255 12.8098C98.3901 13.004 98.4576 13.2349 98.4576 13.5023V16.6225H97.6765V13.6585C97.6765 13.3967 97.5864 13.1954 97.4063 13.0547C97.229 12.9111 96.9967 12.8394 96.7096 12.8394C96.5154 12.8394 96.3324 12.8717 96.1607 12.9365C95.989 12.9984 95.8497 13.0941 95.7427 13.2236C95.6386 13.3503 95.5865 13.5121 95.5865 13.7092V16.6225H94.8096ZM101.52 16.7069C101.115 16.7069 100.757 16.6183 100.448 16.4409C100.138 16.2636 99.8961 16.0089 99.7215 15.6767C99.547 15.3446 99.4598 14.9463 99.4598 14.4818C99.4598 14.023 99.5386 13.6205 99.6962 13.2743C99.8538 12.928 100.082 12.6578 100.38 12.4636C100.681 12.2694 101.043 12.1723 101.465 12.1723C101.876 12.1723 102.224 12.2609 102.508 12.4383C102.793 12.6156 103.008 12.8661 103.154 13.1898C103.303 13.5107 103.378 13.8921 103.378 14.334V14.6212H100.249C100.249 14.897 100.294 15.1475 100.384 15.3727C100.477 15.5951 100.617 15.7724 100.802 15.9047C100.988 16.037 101.223 16.1032 101.508 16.1032C101.786 16.1032 102.025 16.0384 102.225 15.9089C102.428 15.7795 102.557 15.5923 102.614 15.3474H103.348C103.298 15.6429 103.18 15.8921 102.994 16.0947C102.811 16.2974 102.59 16.4508 102.331 16.5549C102.075 16.6563 101.805 16.7069 101.52 16.7069ZM100.254 14.0934H102.626C102.626 13.8429 102.584 13.6177 102.5 13.4178C102.415 13.2152 102.286 13.0561 102.111 12.9407C101.94 12.8225 101.723 12.7634 101.461 12.7634C101.188 12.7634 100.961 12.8295 100.781 12.9618C100.601 13.0913 100.467 13.2588 100.38 13.4643C100.293 13.6669 100.251 13.8766 100.254 14.0934Z" fill="white"/>
<path d="M40.6494 30.378C40.5593 30.378 40.5007 30.3329 40.4737 30.2429L40.0278 28.7972C40.0098 28.7611 39.9873 28.7431 39.9603 28.7431H36.3933C36.3663 28.7431 36.3438 28.7611 36.3258 28.7972L35.8799 30.2429C35.8529 30.3329 35.7943 30.378 35.7043 30.378H34.3531C34.2991 30.378 34.2586 30.3645 34.2315 30.3375C34.2045 30.3014 34.2 30.2519 34.218 30.1888L37.15 21.0553C37.177 20.9652 37.2355 20.9202 37.3256 20.9202H39.0145C39.1046 20.9202 39.1631 20.9652 39.1902 21.0553L42.1356 30.1888C42.1446 30.2068 42.1491 30.2294 42.1491 30.2564C42.1491 30.3375 42.0996 30.378 42.0005 30.378H40.6494ZM36.7446 27.4325C36.7356 27.4866 36.7536 27.5136 36.7987 27.5136H39.5414C39.5955 27.5136 39.6135 27.4866 39.5955 27.4325L38.2038 22.9063C38.1948 22.8703 38.1813 22.8523 38.1633 22.8523C38.1453 22.8523 38.1318 22.8703 38.1228 22.9063L36.7446 27.4325ZM49.2484 25.2572C49.4105 25.7166 49.4916 26.2796 49.4916 26.9461C49.4916 27.5857 49.415 28.1351 49.2619 28.5945C49.0637 29.189 48.744 29.6529 48.3026 29.9862C47.8702 30.3194 47.3208 30.4861 46.6542 30.4861C46.0147 30.4861 45.5013 30.2564 45.114 29.797C45.0959 29.779 45.0779 29.7745 45.0599 29.7835C45.0419 29.7925 45.0329 29.8105 45.0329 29.8375V32.7695C45.0329 32.8145 45.0149 32.8505 44.9789 32.8776C44.9518 32.9136 44.9158 32.9316 44.8708 32.9316H43.6277C43.5827 32.9316 43.5422 32.9136 43.5061 32.8776C43.4791 32.8505 43.4656 32.8145 43.4656 32.7695V23.6359C43.4656 23.5909 43.4791 23.5548 43.5061 23.5278C43.5422 23.4918 43.5827 23.4738 43.6277 23.4738H44.8708C44.9158 23.4738 44.9518 23.4918 44.9789 23.5278C45.0149 23.5548 45.0329 23.5909 45.0329 23.6359V24.0412C45.0329 24.0683 45.0419 24.0863 45.0599 24.0953C45.0779 24.1043 45.0959 24.0953 45.114 24.0683C45.5103 23.5999 46.0282 23.3657 46.6677 23.3657C47.3073 23.3657 47.8477 23.5323 48.2891 23.8656C48.7305 24.1989 49.0502 24.6628 49.2484 25.2572ZM47.4919 28.5675C47.7622 28.1531 47.8973 27.6037 47.8973 26.9191C47.8973 26.2616 47.7892 25.7437 47.573 25.3653C47.3208 24.924 46.938 24.7033 46.4245 24.7033C45.9562 24.7033 45.6049 24.9195 45.3707 25.3518C45.1635 25.7031 45.0599 26.2255 45.0599 26.9191C45.0599 27.6307 45.1725 28.1712 45.3977 28.5405C45.6319 28.9368 45.9697 29.135 46.411 29.135C46.8884 29.135 47.2487 28.9458 47.4919 28.5675ZM56.8616 25.2572C57.0238 25.7166 57.1048 26.2796 57.1048 26.9461C57.1048 27.5857 57.0283 28.1351 56.8751 28.5945C56.677 29.189 56.3572 29.6529 55.9158 29.9862C55.4835 30.3194 54.934 30.4861 54.2675 30.4861C53.6279 30.4861 53.1145 30.2564 52.7272 29.797C52.7092 29.779 52.6912 29.7745 52.6732 29.7835C52.6551 29.7925 52.6461 29.8105 52.6461 29.8375V32.7695C52.6461 32.8145 52.6281 32.8505 52.5921 32.8776C52.5651 32.9136 52.529 32.9316 52.484 32.9316H51.241C51.1959 32.9316 51.1554 32.9136 51.1194 32.8776C51.0923 32.8505 51.0788 32.8145 51.0788 32.7695V23.6359C51.0788 23.5909 51.0923 23.5548 51.1194 23.5278C51.1554 23.4918 51.1959 23.4738 51.241 23.4738H52.484C52.529 23.4738 52.5651 23.4918 52.5921 23.5278C52.6281 23.5548 52.6461 23.5909 52.6461 23.6359V24.0412C52.6461 24.0683 52.6551 24.0863 52.6732 24.0953C52.6912 24.1043 52.7092 24.0953 52.7272 24.0683C53.1235 23.5999 53.6415 23.3657 54.281 23.3657C54.9205 23.3657 55.461 23.5323 55.9023 23.8656C56.3437 24.1989 56.6635 24.6628 56.8616 25.2572ZM55.1052 28.5675C55.3754 28.1531 55.5105 27.6037 55.5105 26.9191C55.5105 26.2616 55.4024 25.7437 55.1862 25.3653C54.934 24.924 54.5512 24.7033 54.0378 24.7033C53.5694 24.7033 53.2181 24.9195 52.9839 25.3518C52.7767 25.7031 52.6732 26.2255 52.6732 26.9191C52.6732 27.6307 52.7857 28.1712 53.0109 28.5405C53.2451 28.9368 53.5829 29.135 54.0243 29.135C54.5017 29.135 54.862 28.9458 55.1052 28.5675ZM58.7866 30.378C58.7416 30.378 58.7011 30.3645 58.665 30.3375C58.638 30.3014 58.6245 30.2609 58.6245 30.2159V21.0823C58.6245 21.0373 58.638 21.0012 58.665 20.9742C58.7011 20.9382 58.7416 20.9202 58.7866 20.9202H60.0297C60.0747 20.9202 60.1107 20.9382 60.1378 20.9742C60.1738 21.0012 60.1918 21.0373 60.1918 21.0823V30.2159C60.1918 30.2609 60.1738 30.3014 60.1378 30.3375C60.1107 30.3645 60.0747 30.378 60.0297 30.378H58.7866ZM67.6805 26.149C67.7165 26.3742 67.7345 26.6264 67.7345 26.9056L67.721 27.3245C67.721 27.4325 67.667 27.4866 67.5589 27.4866H63.3299C63.2849 27.4866 63.2623 27.5091 63.2623 27.5541C63.2894 27.8514 63.3299 28.0541 63.3839 28.1622C63.6001 28.8107 64.1271 29.1395 64.9647 29.1485C65.5773 29.1485 66.0637 28.8963 66.424 28.3918C66.46 28.3378 66.505 28.3108 66.5591 28.3108C66.5951 28.3108 66.6266 28.3243 66.6536 28.3513L67.4913 29.0404C67.5724 29.1034 67.5859 29.1755 67.5319 29.2566C67.2526 29.6529 66.8788 29.9591 66.4104 30.1753C65.9511 30.3915 65.4376 30.4996 64.8702 30.4996C64.1676 30.4996 63.5686 30.342 63.0732 30.0267C62.5868 29.7114 62.231 29.2701 62.0058 28.7026C61.7986 28.2162 61.695 27.5406 61.695 26.6759C61.695 26.1535 61.7491 25.7301 61.8572 25.4059C62.0373 24.7753 62.3751 24.2799 62.8705 23.9196C63.3749 23.5503 63.9784 23.3657 64.681 23.3657C66.4555 23.3657 67.4553 24.2934 67.6805 26.149ZM64.681 24.7168C64.3477 24.7168 64.0685 24.8024 63.8433 24.9735C63.6271 25.1356 63.474 25.3653 63.3839 25.6626C63.3299 25.8157 63.2939 26.0139 63.2758 26.2571C63.2578 26.3021 63.2758 26.3246 63.3299 26.3246H66.0727C66.1177 26.3246 66.1402 26.3021 66.1402 26.2571C66.1222 26.0319 66.0952 25.8607 66.0592 25.7437C65.9781 25.4194 65.8159 25.1672 65.5727 24.987C65.3386 24.8069 65.0413 24.7168 64.681 24.7168ZM75.074 30.4861C74.3714 30.4861 73.7589 30.3735 73.2364 30.1483C72.714 29.9231 72.3087 29.6078 72.0204 29.2025C71.7412 28.7972 71.6016 28.3198 71.6016 27.7703V27.4325C71.6016 27.3875 71.6151 27.3515 71.6421 27.3245C71.6781 27.2884 71.7187 27.2704 71.7637 27.2704H72.9662C73.0113 27.2704 73.0473 27.2884 73.0743 27.3245C73.1103 27.3515 73.1283 27.3875 73.1283 27.4325V27.6893C73.1283 28.1036 73.313 28.4504 73.6823 28.7296C74.0516 28.9998 74.556 29.135 75.1956 29.135C75.745 29.135 76.1594 29.0179 76.4386 28.7837C76.7178 28.5495 76.8574 28.2477 76.8574 27.8784C76.8574 27.6262 76.7809 27.4145 76.6277 27.2434C76.4746 27.0632 76.2539 26.9011 75.9657 26.757C75.6865 26.6129 75.2631 26.4327 74.6956 26.2165C74.0561 25.9823 73.5382 25.7617 73.1419 25.5545C72.7455 25.3473 72.4123 25.0681 72.142 24.7168C71.8808 24.3565 71.7502 23.9106 71.7502 23.3792C71.7502 22.5865 72.0384 21.9605 72.6149 21.5011C73.1914 21.0418 73.9615 20.8121 74.9253 20.8121C75.6009 20.8121 76.1954 20.9292 76.7088 21.1634C77.2312 21.3976 77.6366 21.7263 77.9248 22.1497C78.2131 22.564 78.3572 23.0459 78.3572 23.5954V23.8251C78.3572 23.8701 78.3392 23.9106 78.3031 23.9467C78.2761 23.9737 78.2401 23.9872 78.195 23.9872H76.979C76.934 23.9872 76.8935 23.9737 76.8574 23.9467C76.8304 23.9106 76.8169 23.8701 76.8169 23.8251V23.6764C76.8169 23.2531 76.6413 22.8973 76.29 22.6091C75.9477 22.3118 75.4703 22.1632 74.8578 22.1632C74.3624 22.1632 73.975 22.2668 73.6958 22.4739C73.4256 22.6811 73.2905 22.9739 73.2905 23.3522C73.2905 23.6224 73.3625 23.8431 73.5067 24.0142C73.6508 24.1854 73.867 24.343 74.1552 24.4871C74.4434 24.6222 74.8893 24.7979 75.4928 25.014C76.1323 25.2572 76.6413 25.4779 77.0196 25.6761C77.4069 25.8743 77.7357 26.1535 78.0059 26.5138C78.2851 26.8651 78.4247 27.3064 78.4247 27.8379C78.4247 28.6486 78.123 29.2926 77.5195 29.77C76.925 30.2474 76.1098 30.4861 75.074 30.4861ZM83.516 24.5817C83.516 24.6267 83.498 24.6673 83.462 24.7033C83.435 24.7303 83.3989 24.7438 83.3539 24.7438H81.9757C81.9307 24.7438 81.9082 24.7663 81.9082 24.8114V28.0676C81.9082 28.4099 81.9802 28.6576 82.1244 28.8107C82.2775 28.9638 82.5162 29.0404 82.8405 29.0404H83.2458C83.2908 29.0404 83.3269 29.0584 83.3539 29.0944C83.3899 29.1214 83.4079 29.1575 83.4079 29.2025V30.2159C83.4079 30.3149 83.3539 30.3735 83.2458 30.3915L82.5432 30.405C81.8316 30.405 81.3002 30.2834 80.9489 30.0402C80.5976 29.797 80.4175 29.3376 80.4084 28.6621V24.8114C80.4084 24.7663 80.3859 24.7438 80.3409 24.7438H79.5708C79.5257 24.7438 79.4852 24.7303 79.4492 24.7033C79.4221 24.6673 79.4086 24.6267 79.4086 24.5817V23.6359C79.4086 23.5909 79.4221 23.5548 79.4492 23.5278C79.4852 23.4918 79.5257 23.4738 79.5708 23.4738H80.3409C80.3859 23.4738 80.4084 23.4513 80.4084 23.4062V21.8254C80.4084 21.7804 80.422 21.7443 80.449 21.7173C80.485 21.6813 80.5255 21.6633 80.5706 21.6633H81.7461C81.7911 21.6633 81.8271 21.6813 81.8541 21.7173C81.8902 21.7443 81.9082 21.7804 81.9082 21.8254V23.4062C81.9082 23.4513 81.9307 23.4738 81.9757 23.4738H83.3539C83.3989 23.4738 83.435 23.4918 83.462 23.5278C83.498 23.5548 83.516 23.5909 83.516 23.6359V24.5817ZM87.708 30.4861C86.9964 30.4861 86.3839 30.3059 85.8705 29.9456C85.366 29.5853 85.0102 29.0854 84.8031 28.4459C84.6499 27.9595 84.5734 27.4461 84.5734 26.9056C84.5734 26.3291 84.6454 25.8157 84.7896 25.3653C84.9967 24.7348 85.357 24.2439 85.8705 23.8926C86.3839 23.5413 87.0009 23.3657 87.7215 23.3657C88.406 23.3657 88.996 23.5413 89.4914 23.8926C89.9959 24.2439 90.3517 24.7303 90.5588 25.3518C90.721 25.7842 90.802 26.2976 90.802 26.8921C90.802 27.4596 90.7255 27.973 90.5723 28.4324C90.3652 29.0719 90.0094 29.5763 89.505 29.9456C89.0005 30.3059 88.4015 30.4861 87.708 30.4861ZM87.708 29.135C88.0412 29.135 88.325 29.0404 88.5592 28.8512C88.8024 28.6621 88.978 28.3963 89.0861 28.0541C89.1762 27.7568 89.2212 27.3785 89.2212 26.9191C89.2212 26.4327 89.1762 26.0544 89.0861 25.7842C88.987 25.4419 88.8159 25.1807 88.5727 25.0005C88.3295 24.8114 88.0322 24.7168 87.6809 24.7168C87.3477 24.7168 87.0594 24.8114 86.8162 25.0005C86.573 25.1807 86.3974 25.4419 86.2893 25.7842C86.1992 26.0994 86.1542 26.4778 86.1542 26.9191C86.1542 27.3605 86.1992 27.7388 86.2893 28.0541C86.3884 28.3963 86.5595 28.6621 86.8027 28.8512C87.0549 29.0404 87.3567 29.135 87.708 29.135ZM95.4994 23.3927C95.7876 23.3927 96.0398 23.4513 96.256 23.5683C96.3281 23.6044 96.3551 23.6719 96.3371 23.771L96.1074 24.987C96.0984 25.0951 96.0353 25.1266 95.9182 25.0816C95.7831 25.0366 95.6255 25.014 95.4453 25.014C95.3282 25.014 95.2382 25.0186 95.1751 25.0276C94.7968 25.0456 94.4815 25.1807 94.2293 25.4329C93.9771 25.6761 93.851 25.9959 93.851 26.3922V30.2159C93.851 30.2609 93.833 30.3014 93.797 30.3375C93.77 30.3645 93.7339 30.378 93.6889 30.378H92.4459C92.4008 30.378 92.3603 30.3645 92.3243 30.3375C92.2972 30.3014 92.2837 30.2609 92.2837 30.2159V23.6359C92.2837 23.5909 92.2972 23.5548 92.3243 23.5278C92.3603 23.4918 92.4008 23.4738 92.4459 23.4738H93.6889C93.7339 23.4738 93.77 23.4918 93.797 23.5278C93.833 23.5548 93.851 23.5909 93.851 23.6359V24.2439C93.851 24.2799 93.8555 24.3025 93.8645 24.3115C93.8826 24.3115 93.9006 24.298 93.9186 24.2709C94.2969 23.6854 94.8238 23.3927 95.4994 23.3927ZM103.055 26.149C103.091 26.3742 103.109 26.6264 103.109 26.9056L103.096 27.3245C103.096 27.4325 103.041 27.4866 102.933 27.4866H98.7044C98.6594 27.4866 98.6368 27.5091 98.6368 27.5541C98.6639 27.8514 98.7044 28.0541 98.7584 28.1622C98.9746 28.8107 99.5016 29.1395 100.339 29.1485C100.952 29.1485 101.438 28.8963 101.798 28.3918C101.834 28.3378 101.88 28.3108 101.934 28.3108C101.97 28.3108 102.001 28.3243 102.028 28.3513L102.866 29.0404C102.947 29.1034 102.96 29.1755 102.906 29.2566C102.627 29.6529 102.253 29.9591 101.785 30.1753C101.326 30.3915 100.812 30.4996 100.245 30.4996C99.5421 30.4996 98.9431 30.342 98.4477 30.0267C97.9613 29.7114 97.6055 29.2701 97.3803 28.7026C97.1731 28.2162 97.0695 27.5406 97.0695 26.6759C97.0695 26.1535 97.1236 25.7301 97.2317 25.4059C97.4118 24.7753 97.7496 24.2799 98.245 23.9196C98.7494 23.5503 99.3529 23.3657 100.056 23.3657C101.83 23.3657 102.83 24.2934 103.055 26.149ZM100.056 24.7168C99.7222 24.7168 99.443 24.8024 99.2178 24.9735C99.0016 25.1356 98.8485 25.3653 98.7584 25.6626C98.7044 25.8157 98.6684 26.0139 98.6503 26.2571C98.6323 26.3021 98.6503 26.3246 98.7044 26.3246H101.447C101.492 26.3246 101.515 26.3021 101.515 26.2571C101.497 26.0319 101.47 25.8607 101.434 25.7437C101.353 25.4194 101.19 25.1672 100.947 24.987C100.713 24.8069 100.416 24.7168 100.056 24.7168Z" fill="white"/>
<rect x="44.8663" y="43.7109" width="92.8728" height="20.9756" transform="rotate(-35 44.8663 43.7109)" fill="url(#paint1_linear_326_318)"/>
<path d="M76.9057 26.0263C76.4419 26.3511 76.1922 26.7709 76.1567 27.2857C76.1212 27.8005 76.306 28.3473 76.7112 28.926C77.1353 29.5317 77.5834 29.9008 78.0554 30.0334C78.5297 30.1644 79.0089 30.0604 79.493 29.7214C79.7025 29.5748 79.8909 29.4126 80.0584 29.2349C80.2244 29.0549 80.3903 28.8582 80.5563 28.6447L81.0411 29.3371C80.7563 29.7547 80.3684 30.1353 79.8776 30.479C79.1548 30.9851 78.4468 31.1554 77.7536 30.9897C77.0588 30.8218 76.4261 30.3303 75.8553 29.5152C75.4958 29.0018 75.2747 28.4871 75.192 27.9712C75.1116 27.4537 75.1775 26.968 75.3898 26.514C75.6021 26.0599 75.948 25.665 76.4276 25.3292C76.932 24.976 77.4722 24.7555 78.0483 24.6675L78.2284 25.5431C78.0066 25.5809 77.7818 25.636 77.5539 25.7084C77.3267 25.7768 77.1106 25.8828 76.9057 26.0263ZM84.1279 24.6086C84.5551 25.2188 84.7321 25.8046 84.6588 26.3661C84.5854 26.9275 84.2696 27.4037 83.7111 27.7947C83.3621 28.0391 82.9984 28.1763 82.6201 28.2063C82.2418 28.2363 81.8773 28.1543 81.5267 27.9602C81.176 27.7661 80.8643 27.4743 80.5915 27.0848C80.1674 26.4791 79.9917 25.8974 80.0643 25.3398C80.137 24.7822 80.4559 24.3055 81.0211 23.9098C81.5615 23.5314 82.1115 23.4063 82.6712 23.5346C83.2292 23.6607 83.7148 24.0186 84.1279 24.6086ZM81.4089 26.5124C82.0128 27.3749 82.6333 27.583 83.2706 27.1368C83.901 26.6953 83.9144 26.0433 83.3105 25.1809C82.7129 24.3275 82.0966 24.1231 81.4617 24.5678C81.1284 24.8011 80.9636 25.0809 80.9672 25.4072C80.9731 25.732 81.1204 26.1004 81.4089 26.5124ZM89.5037 23.6381L88.7066 24.1962L87.0936 21.8927C86.8934 21.6067 86.6904 21.4318 86.4845 21.3678C86.2771 21.3016 86.0586 21.349 85.8289 21.5098C85.5227 21.7242 85.3676 21.9821 85.3639 22.2834C85.3608 22.5809 85.5216 22.9616 85.8464 23.4254L87.1495 25.2865L86.3558 25.8422L83.7401 22.1066L84.3615 21.6715L84.8159 22.0832L84.8565 22.0548C84.8355 21.8044 84.889 21.5622 85.0172 21.3282C85.1475 21.0926 85.3309 20.892 85.5673 20.7265C86.1415 20.3244 86.6592 20.2539 87.1205 20.5148L87.1745 20.477C87.1556 20.2151 87.21 19.9622 87.3379 19.7183C87.4658 19.4744 87.6592 19.2618 87.9181 19.0804C88.364 18.7683 88.7671 18.6538 89.1274 18.7371C89.49 18.8188 89.8329 19.0904 90.1561 19.552L91.8613 21.9873L91.0675 22.543L89.4546 20.2395C89.2543 19.9536 89.0502 19.7794 88.8421 19.717C88.6347 19.6509 88.4161 19.6982 88.1865 19.859C87.878 20.075 87.7195 20.3303 87.711 20.6249C87.7031 20.9156 87.8387 21.2602 88.1178 21.6588L89.5037 23.6381ZM93.7629 20.6558L92.9691 21.2115L90.3534 17.4759L91.1471 16.9201L93.7629 20.6558ZM89.6132 16.5194C89.5138 16.3775 89.4756 16.2415 89.4986 16.1114C89.5238 15.9796 89.6085 15.8633 89.7526 15.7624C89.8922 15.6646 90.0271 15.6272 90.1572 15.6502C90.2896 15.6715 90.4055 15.7532 90.5049 15.895C90.5995 16.0301 90.6349 16.1647 90.6113 16.2987C90.5884 16.4288 90.5071 16.5428 90.3675 16.6406C90.2234 16.7415 90.0851 16.7812 89.9527 16.7599C89.8209 16.7346 89.7078 16.6545 89.6132 16.5194ZM98.1875 17.5576L97.3904 18.1157L95.7822 15.819C95.5804 15.5307 95.3712 15.3567 95.1548 15.2968C94.9407 15.2354 94.7075 15.2929 94.4553 15.4695C94.1198 15.7045 93.9437 15.9754 93.9271 16.2823C93.9105 16.5893 94.0653 16.9758 94.3917 17.4419L95.6948 19.303L94.9011 19.8587L92.2854 16.1231L92.9069 15.688L93.3613 16.0997L93.4018 16.0713C93.3898 15.8146 93.4535 15.5653 93.5929 15.3234C93.7322 15.0815 93.928 14.8723 94.1802 14.6957C95.0764 14.0682 95.8438 14.2104 96.4823 15.1223L98.1875 17.5576ZM99.8309 10.8397L100.136 11.2754L99.5804 11.8406C99.6942 11.8784 99.8104 11.9413 99.9291 12.0294C100.048 12.1174 100.152 12.2256 100.242 12.3539C100.512 12.739 100.591 13.1349 100.48 13.5416C100.368 13.9483 100.08 14.3148 99.6136 14.6412C99.4943 14.7248 99.3799 14.7915 99.2704 14.8412C99.1734 15.0669 99.1746 15.2507 99.2739 15.3925C99.3338 15.4781 99.4181 15.5147 99.5269 15.5023C99.6379 15.4883 99.8004 15.4064 100.014 15.2566L100.666 14.8002C101.078 14.5116 101.453 14.3803 101.79 14.4062C102.127 14.432 102.411 14.6104 102.643 14.9414C102.939 15.3648 102.993 15.8135 102.805 16.2875C102.617 16.7616 102.193 17.2296 101.533 17.6916C101.024 18.0479 100.573 18.2298 100.179 18.2373C99.7845 18.2448 99.4707 18.0819 99.2374 17.7486C99.0766 17.519 99.013 17.2748 99.0468 17.0163C99.0843 16.7585 99.2124 16.5077 99.4311 16.264C99.2937 16.2931 99.1554 16.2825 99.0163 16.2323C98.8778 16.1783 98.7699 16.0961 98.6926 15.9858C98.5949 15.8462 98.5515 15.7003 98.5625 15.5483C98.5735 15.3963 98.6236 15.2186 98.7128 15.0153C98.4608 15.0676 98.2086 15.0428 97.9561 14.9411C97.7043 14.8355 97.4901 14.6566 97.3135 14.4044C97.0297 13.9991 96.937 13.5959 97.0354 13.1948C97.136 12.7921 97.4227 12.4253 97.8956 12.0942C98.0014 12.0201 98.1173 11.9507 98.2431 11.886C98.3697 11.8176 98.4677 11.7707 98.5373 11.7455L99.8309 10.8397ZM99.9183 17.2114C100.038 17.3826 100.207 17.4607 100.425 17.4458C100.645 17.4293 100.894 17.3233 101.174 17.1278C101.606 16.8251 101.885 16.5377 102.009 16.2657C102.134 15.9936 102.125 15.7551 101.982 15.5502C101.868 15.3881 101.728 15.3131 101.562 15.3253C101.4 15.3382 101.162 15.455 100.846 15.6757L100.245 16.0967C100.018 16.2559 99.8735 16.4358 99.8125 16.6362C99.7553 16.8373 99.7906 17.0291 99.9183 17.2114ZM98.0836 13.8652C98.2476 14.0994 98.4334 14.2377 98.641 14.2803C98.8509 14.3212 99.0685 14.2629 99.2936 14.1052C99.753 13.7835 99.8108 13.3773 99.4671 12.8864C99.2968 12.6432 99.1085 12.4965 98.9022 12.4463C98.6966 12.3923 98.4779 12.4465 98.2459 12.6089C98.0163 12.7697 97.8875 12.9572 97.8596 13.1714C97.8339 13.384 97.9086 13.6152 98.0836 13.8652ZM88.3735 33.4181C88.6809 33.8572 88.7634 34.3128 88.6209 34.7851C88.4785 35.2573 88.128 35.689 87.5696 36.08C87.0111 36.471 86.4933 36.7044 86.0162 36.7801L85.4817 36.0168C85.7809 35.9649 86.078 35.8811 86.3727 35.7653C86.6697 35.648 86.9275 35.5128 87.1459 35.3599C87.4656 35.136 87.6584 34.9104 87.7241 34.6832C87.7921 34.4544 87.7543 34.2375 87.6108 34.0326C87.4815 33.848 87.3022 33.7404 87.0727 33.7098C86.8432 33.6792 86.4486 33.729 85.8887 33.8592C85.3107 33.9922 84.8473 34.0062 84.4987 33.9013C84.1501 33.7964 83.8607 33.5796 83.6305 33.2508C83.342 32.8388 83.2613 32.412 83.3885 31.9706C83.5156 31.5292 83.8258 31.1359 84.3189 30.7906C84.7918 30.4595 85.3349 30.2336 85.9483 30.1128L86.1528 30.9511C85.5845 31.0739 85.128 31.256 84.7835 31.4972C84.5223 31.6801 84.3643 31.8763 84.3097 32.0857C84.2534 32.2929 84.2907 32.4899 84.4215 32.6768C84.5114 32.8052 84.6157 32.8966 84.7344 32.9511C84.8515 33.0033 85.0003 33.0266 85.1809 33.0209C85.3616 33.0153 85.6594 32.9661 86.0744 32.8735C86.5426 32.7705 86.9068 32.7252 87.1671 32.7376C87.4275 32.7499 87.6546 32.8107 87.8485 32.9199C88.0424 33.0291 88.2174 33.1951 88.3735 33.4181ZM92.1847 29.9541C92.6119 30.5644 92.7889 31.1502 92.7156 31.7116C92.6422 32.273 92.3264 32.7493 91.7679 33.1403C91.4189 33.3847 91.0552 33.5218 90.6769 33.5519C90.2986 33.5819 89.9341 33.4998 89.5834 33.3058C89.2328 33.1117 88.9211 32.8199 88.6483 32.4303C88.2242 31.8246 88.0484 31.243 88.1211 30.6854C88.1938 30.1278 88.5127 29.6511 89.0779 29.2553C89.6183 28.8769 90.1683 28.7519 90.7279 28.8802C91.286 29.0062 91.7716 29.3642 92.1847 29.9541ZM89.4657 31.858C90.0696 32.7204 90.6901 32.9285 91.3274 32.4823C91.9578 32.0408 91.9711 31.3889 91.3673 30.5265C90.7697 29.6731 90.1534 29.4687 89.5185 29.9133C89.1852 30.1467 89.0204 30.4265 89.024 30.7528C89.0299 31.0775 89.1772 31.4459 89.4657 31.858ZM96.4134 26.9931C96.8407 27.6034 97.0177 28.1892 96.9443 28.7506C96.871 29.312 96.5551 29.7882 95.9967 30.1793C95.6477 30.4236 95.284 30.5608 94.9057 30.5908C94.5273 30.6208 94.1629 30.5388 93.8122 30.3447C93.4615 30.1507 93.1498 29.8589 92.8771 29.4693C92.4529 28.8636 92.2772 28.2819 92.3499 27.7244C92.4225 27.1668 92.7414 26.6901 93.3066 26.2943C93.847 25.9159 94.3971 25.7909 94.9567 25.9192C95.5147 26.0452 96.0003 26.4032 96.4134 26.9931ZM93.6944 28.897C94.2983 29.7594 94.9189 29.9675 95.5561 29.5213C96.1866 29.0798 96.1999 28.4279 95.596 27.5655C94.9985 26.7121 94.3822 26.5077 93.7472 26.9523C93.4139 27.1857 93.2491 27.4655 93.2528 27.7918C93.2587 28.1165 93.4059 28.4849 93.6944 28.897ZM101.928 25.9256L101.131 26.4838L99.5224 24.187C99.3206 23.8988 99.1115 23.7247 98.895 23.6649C98.6809 23.6034 98.4477 23.661 98.1955 23.8376C97.86 24.0725 97.6839 24.3434 97.6673 24.6504C97.6507 24.9573 97.8056 25.3438 98.1319 25.81L99.4351 27.671L98.6413 28.2268L96.0256 24.4912L96.6471 24.056L97.1015 24.4677L97.142 24.4393C97.13 24.1826 97.1937 23.9333 97.3331 23.6914C97.4725 23.4495 97.6682 23.2403 97.9204 23.0637C98.8166 22.4362 99.584 22.5784 100.223 23.4904L101.928 25.9256Z" fill="white"/>
</g>
<rect x="0.84105" y="1.17525" width="110.851" height="39.65" rx="6.44726" stroke="black" stroke-opacity="0.24" stroke-width="0.61667"/>
<defs>
<linearGradient id="paint0_linear_326_318" x1="56.2663" y1="0.866911" x2="56.2663" y2="41.1336" gradientUnits="userSpaceOnUse">
<stop stop-color="#161C24"/>
<stop offset="1"/>
</linearGradient>
<linearGradient id="paint1_linear_326_318" x1="44.8663" y1="54.1987" x2="137.739" y2="54.1987" gradientUnits="userSpaceOnUse">
<stop stop-color="#F8C800"/>
<stop offset="1" stop-color="#FF3A44"/>
</linearGradient>
<clipPath id="clip0_326_318">
<rect x="0.532715" y="0.866911" width="111.467" height="40.2667" rx="6.75559" fill="white"/>
</clipPath>
</defs>
</svg>
