<svg width="160" height="48" viewBox="0 0 160 48" fill="none" xmlns="http://www.w3.org/2000/svg">
<path d="M154.074 47.4841H5.92593C2.66671 47.4841 0 44.8131 0 41.5486V5.93554C0 2.67098 2.66665 0 5.92593 0H154.074C157.333 0 160 2.67098 160 5.93554V41.5485C160 44.8131 157.333 47.4841 154.074 47.4841" fill="black"/>
<path d="M56.1996 12.1602C56.1996 13.1548 55.9056 13.9468 55.3167 14.5376C54.6477 15.2401 53.7759 15.5917 52.7041 15.5917C51.6778 15.5917 50.8051 15.2355 50.0875 14.5223C49.3686 13.8096 49.0098 12.9258 49.0098 11.8713C49.0098 10.8163 49.3686 9.93302 50.0875 9.21971C50.8051 8.50704 51.6778 8.15039 52.7041 8.15039C53.2134 8.15039 53.701 8.25016 54.1639 8.4491C54.6268 8.64853 54.9982 8.91326 55.276 9.24478L54.6509 9.87123C54.1801 9.30784 53.532 9.02636 52.7041 9.02636C51.9556 9.02636 51.3083 9.28981 50.7621 9.81703C50.2157 10.3448 49.9426 11.0292 49.9426 11.8713C49.9426 12.7134 50.2157 13.3978 50.7621 13.9256C51.3083 14.4528 51.9556 14.7162 52.7041 14.7162C53.4982 14.7162 54.1602 14.4513 54.6903 13.9209C55.0343 13.5754 55.2333 13.095 55.2865 12.4782H52.7041V11.6227H56.15C56.1833 11.8087 56.1995 11.9873 56.1995 12.1602" fill="white"/>
<path d="M56.1989 12.1608H56.0804C56.0794 13.1327 55.796 13.8875 55.2321 14.4542L55.2309 14.4552L55.2304 14.4561C54.5827 15.1344 53.7501 15.4721 52.7034 15.4735C51.7044 15.4721 50.8682 15.1308 50.17 14.4389C49.4734 13.7457 49.1289 12.8994 49.1276 11.8718C49.1289 10.8438 49.4734 9.99795 50.17 9.30519C50.8682 8.61285 51.7044 8.27108 52.7034 8.26964C53.1974 8.26964 53.6678 8.36621 54.1164 8.55859C54.5654 8.75247 54.9202 9.00653 55.1845 9.32194L55.2752 9.24533L55.1915 9.16141L54.5664 9.78828L54.6502 9.87178L54.7414 9.79581C54.2487 9.20451 53.5572 8.90644 52.7034 8.9082C51.9271 8.90724 51.2442 9.18509 50.6793 9.73232C50.109 10.2813 49.8225 11.0042 49.8234 11.8718C49.8225 12.7395 50.109 13.4623 50.6793 14.0114C51.2442 14.5586 51.9271 14.8364 52.7034 14.8354C53.5238 14.8369 54.2229 14.5581 54.7733 14.0054C55.1409 13.6362 55.3493 13.1248 55.404 12.489L55.415 12.3601H52.8219V11.742H56.1493V11.6232L56.0326 11.6441C56.065 11.8241 56.0803 11.9952 56.0803 12.1608H56.3174C56.3174 11.9803 56.3007 11.7949 56.266 11.602L56.2484 11.5045H52.5849V12.5975H55.2858V12.4788L55.1678 12.4686C55.1155 13.0659 54.9257 13.5157 54.6058 13.8376C54.0965 14.3458 53.4715 14.5966 52.7034 14.598C51.9826 14.597 51.3711 14.3485 50.8438 13.8407C50.3216 13.3348 50.0618 12.6889 50.0605 11.8718C50.0618 11.0547 50.3216 10.4088 50.8438 9.90288C51.3711 9.39514 51.9826 9.14658 52.7034 9.14562C53.5049 9.14754 54.11 9.41274 54.5596 9.94834L54.6429 10.0476L55.3591 9.3293L55.4359 9.25237L55.366 9.16925C55.0748 8.82156 54.6868 8.54557 54.21 8.3407C53.7322 8.1352 53.228 8.03223 52.7034 8.03223C51.6498 8.03132 50.7405 8.40227 50.003 9.13639C49.2628 9.86906 48.8896 10.79 48.8906 11.8718C48.8896 12.9531 49.2627 13.8746 50.0035 14.6077C50.7405 15.3413 51.6498 15.7119 52.7034 15.7109C53.8007 15.7119 54.7109 15.3468 55.4017 14.6202L55.3159 14.5381L55.3997 14.6221C56.0137 14.0077 56.3182 13.1776 56.3174 12.1608H56.1989H56.1989ZM61.6618 9.18552H58.4234V11.4439H61.3438V12.2997H58.4234V14.5581H61.6618V15.4331H57.5104V8.31051H61.6618V9.18552Z" fill="white"/>
<path d="M61.6624 9.18464V9.06593H58.3055V11.5617H61.2259V12.1798L58.3055 12.1801V14.6759H61.5439V15.3135H57.6296V8.42833H61.5439V9.18464H61.6624V9.06593V9.18464H61.7809V8.19092H57.3926V15.5509H61.7809V14.4385H58.5425V12.4176H61.463V11.3243H58.5425V9.30334H61.7809V9.18464H61.6624ZM65.5157 15.4323H64.6013V9.18458H62.6152V8.30957H67.5018V9.18458H65.5157V15.4322" fill="white"/>
<path d="M65.5151 15.4323V15.3135H64.7192V9.06593H62.7331V8.42838H67.3827V9.06593H65.3966V15.4322H65.5151V15.3135V15.4322H65.6336V9.30334H67.6197V8.19092H62.4961V9.30329H64.4822V15.5509H65.6336V15.4322H65.5151V15.4323ZM71.0369 15.4323V8.30957H71.9503V15.4322H71.0369" fill="white"/>
<path d="M71.0365 15.4323H71.155V8.42833H71.8313V15.3135H71.0365V15.4322H71.155H71.0365V15.5509H72.0684V8.19092H70.918V15.5509H71.0365V15.4322V15.4323ZM76.0031 15.4323H75.0888V9.18458H73.1027V8.30957H77.9892V9.18458H76.0031V15.4322" fill="white"/>
<path d="M76.0033 15.4326V15.3139H75.2074V9.06627H73.2214V8.42872H77.8709V9.06627H75.8848V15.4326H76.0033V15.3139V15.4326H76.1218V9.30368H78.1079V8.19126H72.9844V9.30363H74.9704V15.5512H76.1218V15.4325H76.0033V15.4326ZM82.7005 13.9158C83.2268 14.4495 83.8709 14.7161 84.6325 14.7161C85.3941 14.7161 86.0385 14.4495 86.564 13.9158C87.0908 13.3821 87.3547 12.6999 87.3547 11.8713C87.3547 11.0427 87.0908 10.3605 86.564 9.82674C86.0385 9.29301 85.3941 9.02636 84.6325 9.02636C83.8709 9.02636 83.2268 9.29301 82.7005 9.82674C82.175 10.3605 81.9112 11.0427 81.9112 11.8713C81.9112 12.6999 82.175 13.3821 82.7005 13.9158ZM87.2399 14.5121C86.5408 15.2322 85.6713 15.5917 84.6325 15.5917C83.5926 15.5917 82.7236 15.2322 82.026 14.5121C81.3264 13.7928 80.9783 12.9124 80.9783 11.8713C80.9783 10.8302 81.3264 9.94955 82.026 9.23043C82.7236 8.51019 83.5926 8.15039 84.6325 8.15039C85.6659 8.15039 86.5329 8.51211 87.2353 9.23507C87.9366 9.95798 88.2876 10.8367 88.2876 11.8713C88.2876 12.9124 87.9375 13.7928 87.2399 14.5121Z" fill="white"/>
<path d="M82.7021 13.9164L82.6178 13.9998C83.1636 14.5549 83.8447 14.8369 84.634 14.8354C85.4229 14.8369 86.1048 14.5549 86.6498 13.9998C87.1992 13.4442 87.4756 12.7255 87.4747 11.8718C87.4755 11.0182 87.1992 10.2994 86.6498 9.74379C86.1048 9.18872 85.4229 8.90682 84.634 8.9082C83.8447 8.90682 83.1636 9.18872 82.6178 9.74379C82.0696 10.2994 81.7927 11.0182 81.7942 11.8718C81.7927 12.7254 82.0696 13.4442 82.6178 13.9998L82.7021 13.9164L82.7864 13.8329C82.2836 13.3205 82.0322 12.6759 82.0312 11.8718C82.0322 11.0678 82.2836 10.4232 82.7863 9.91073C83.2937 9.39839 83.8997 9.14706 84.634 9.14567C85.3677 9.14706 85.9752 9.39839 86.4812 9.91073C86.9849 10.4232 87.2363 11.0678 87.2372 11.8718C87.2363 12.6758 86.9849 13.3205 86.4812 13.8329C85.9752 14.3453 85.3678 14.5966 84.634 14.598C83.8997 14.5966 83.2937 14.3453 82.7863 13.8329L82.7021 13.9164ZM87.2414 14.5126L87.1567 14.4302C86.4771 15.1276 85.646 15.4721 84.634 15.4735C83.6215 15.4721 82.7905 15.1276 82.1121 14.4302L82.1089 14.4264L82.1121 14.4302C81.434 13.7304 81.0993 12.8864 81.0984 11.8718C81.0993 10.8572 81.434 10.0133 82.1121 9.31351C82.7905 8.61605 83.6215 8.27108 84.634 8.2697C85.6395 8.27108 86.4687 8.61749 87.152 9.31858C87.8326 10.0216 88.1692 10.8642 88.1706 11.8718C88.1692 12.8864 87.8335 13.7304 87.1567 14.4302L87.2414 14.5126L87.3266 14.5951C88.0451 13.856 88.4085 12.9393 88.4076 11.8718C88.4085 10.8104 88.0437 9.89552 87.3219 9.15314C86.5997 8.40782 85.6951 8.03095 84.634 8.03223C83.5674 8.03095 82.66 8.40606 81.9423 9.1485V9.14796C81.2225 9.88757 80.8604 10.8044 80.8613 11.8718C80.8604 12.9393 81.2225 13.856 81.9423 14.5956L81.9455 14.599L81.9423 14.5951C82.66 15.3376 83.5674 15.7119 84.634 15.7109C85.7002 15.7119 86.6076 15.3376 87.3266 14.5951L87.2414 14.5126ZM89.5715 15.4332V8.31046H90.6836L94.1395 13.8514H94.1789L94.1395 12.4787V8.31046H95.0539V15.4331H94.1002L90.4845 9.62364H90.4451L90.4845 10.9967V15.4331H89.5715" fill="white"/>
<path d="M89.5713 15.4323H89.6898V8.42833H90.6176L94.0736 13.9692H94.3004L94.2579 12.4761V8.42838H94.9352V15.3135H94.1658L90.5501 9.50411H90.3232L90.3657 10.9978V15.3135H89.5713V15.4322H89.6898H89.5713V15.5509H90.6028V10.994L90.5635 9.61961L90.4449 9.62281V9.74152H90.4843V9.62281L90.3838 9.68593L94.0343 15.5509H95.1723V8.19092H94.0209V12.4793L94.0602 13.8537L94.1788 13.8505V13.7318H94.1394V13.8505L94.2399 13.7875L90.749 8.19092H89.4529V15.5509H89.5714V15.4322L89.5713 15.4323ZM126.739 35.613H128.951V20.7728H126.739L126.739 35.613ZM146.659 26.1186L144.124 32.5525H144.048L141.417 26.1185H139.035L142.98 35.1112L140.731 40.1133H143.038L149.118 26.1185L146.659 26.1186ZM134.117 33.9274C133.392 33.9274 132.382 33.5648 132.382 32.6671C132.382 31.5216 133.641 31.0825 134.726 31.0825C135.7 31.0825 136.156 31.2925 136.747 31.5792C136.575 32.9536 135.394 33.9274 134.117 33.9274ZM134.384 25.7939C132.783 25.7939 131.125 26.5005 130.438 28.0661L132.401 28.8869C132.821 28.0661 133.602 27.7985 134.422 27.7985C135.566 27.7985 136.728 28.4862 136.747 29.7081V29.8607C136.347 29.6316 135.49 29.288 134.441 29.288C132.325 29.288 130.171 30.4523 130.171 32.629C130.171 34.6147 131.906 35.894 133.849 35.894C135.337 35.894 136.156 35.2257 136.671 34.4431H136.747V35.5884H138.882V29.8986C138.882 27.2644 136.919 25.7939 134.384 25.7939ZM120.716 27.9251H117.571V22.8382H120.716C122.37 22.8382 123.308 24.2094 123.308 25.3816C123.308 26.5316 122.37 27.9251 120.716 27.9251ZM120.659 20.7728H115.36V35.613H117.571V29.9905H120.659C123.11 29.9905 125.52 28.213 125.52 25.3816C125.52 22.5502 123.11 20.7728 120.659 20.7728ZM91.7634 33.9302C90.2356 33.9302 88.9565 32.6489 88.9565 30.8891C88.9565 29.1109 90.2356 27.8101 91.7634 27.8101C93.2718 27.8101 94.4556 29.1108 94.4556 30.8891C94.4556 32.6489 93.2718 33.9302 91.7635 33.9302H91.7634ZM94.3028 26.9495H94.2264C93.7301 26.3568 92.775 25.8213 91.5723 25.8213C89.0519 25.8213 86.7417 28.0397 86.7417 30.8891C86.7417 33.7197 89.0518 35.919 91.5723 35.919C92.775 35.919 93.7301 35.3834 94.2264 34.7718H94.3028V35.4984C94.3028 37.4303 93.2718 38.463 91.6107 38.463C90.255 38.463 89.4149 37.4873 89.0708 36.6651L87.1427 37.4683C87.6964 38.807 89.1667 40.4519 91.6107 40.4519C94.2074 40.4519 96.4032 38.9215 96.4032 35.1924V26.1273H94.3028V26.9495ZM97.9306 35.613H100.145V20.7723H97.9306V35.613ZM103.411 30.7171C103.353 28.7662 104.919 27.772 106.045 27.772C106.924 27.772 107.669 28.2117 107.916 28.8433L103.411 30.7171ZM110.284 29.0343C109.865 27.9056 108.585 25.8213 105.969 25.8213C103.372 25.8213 101.215 27.8676 101.215 30.8702C101.215 33.7007 103.353 35.919 106.217 35.919C108.528 35.919 109.865 34.5037 110.418 33.6815L108.7 32.5339C108.127 33.3755 107.344 33.9302 106.217 33.9302C105.091 33.9302 104.289 33.4136 103.773 32.4003L110.513 29.6079L110.284 29.0343ZM56.5857 27.3705V29.5124H61.7027C61.55 30.7171 61.149 31.5968 60.5379 32.2088C59.7935 32.955 58.6288 33.7772 56.5857 33.7772C53.4351 33.7772 50.9722 31.2336 50.9722 28.0781C50.9722 24.9226 53.4351 22.3787 56.5857 22.3787C58.2852 22.3787 59.5259 23.0482 60.4425 23.9088L61.9509 22.3981C60.6718 21.1739 58.9722 20.2368 56.5857 20.2368C52.2704 20.2368 48.6426 23.7559 48.6426 28.0781C48.6426 32.4003 52.2704 35.919 56.5857 35.919C58.9153 35.919 60.6718 35.1544 62.0463 33.7197C63.4593 32.3044 63.8987 30.3156 63.8987 28.7093C63.8987 28.2117 63.8606 27.7531 63.7838 27.3705H56.5857ZM69.7163 33.9302C68.1884 33.9302 66.8709 32.6679 66.8709 30.8702C66.8709 29.0533 68.1884 27.8101 69.7163 27.8101C71.2435 27.8101 72.5611 29.0533 72.5611 30.8702C72.5611 32.6679 71.2435 33.9302 69.7163 33.9302ZM69.7163 25.8213C66.9282 25.8213 64.656 27.944 64.656 30.8702C64.656 33.7772 66.9282 35.919 69.7163 35.919C72.5037 35.919 74.7759 33.7772 74.7759 30.8702C74.7759 27.944 72.5037 25.8213 69.7163 25.8213ZM80.7541 33.9302C79.2269 33.9302 77.9092 32.6679 77.9092 30.8702C77.9092 29.0533 79.2269 27.8101 80.7542 27.8101C82.2815 27.8101 83.599 29.0533 83.599 30.8702C83.599 32.6679 82.2815 33.9302 80.7542 33.9302H80.7541ZM80.7541 25.8213C77.9662 25.8213 75.6945 27.944 75.6945 30.8702C75.6945 33.7772 77.9662 35.919 80.7542 35.919C83.5417 35.919 85.814 33.7772 85.814 30.8702C85.814 27.944 83.5417 25.8213 80.7542 25.8213H80.7541Z" fill="white"/>
<path d="M12.4535 9.03526C12.0558 9.39468 11.8184 9.99419 11.8184 10.79V10.6101V36.8701V36.6971C11.8184 37.432 12.022 37.9996 12.3669 38.3651L12.4549 38.4495V38.4499C12.734 38.7022 13.092 38.8361 13.5022 38.8357C13.903 38.8357 14.354 38.7077 14.8299 38.4374L32.0331 28.6471L37.9423 25.2837C38.6928 24.8567 39.1141 24.3058 39.1845 23.7447V23.7424C39.1141 23.1799 38.6928 22.6295 37.9424 22.2024L32.0327 18.8395L14.83 9.04913C14.353 8.77837 13.9017 8.6499 13.4998 8.6499C13.0901 8.6499 12.7326 8.78344 12.4536 9.03526H12.4535Z" fill="#00C1FF"/>
<path d="M12.4549 38.4502L12.3669 38.3658C12.022 38.0003 11.8184 37.4327 11.8184 36.6978V36.8708V10.6173V10.7907C11.8184 9.99489 12.0558 9.39539 12.4535 9.03596L27.1377 23.7436L12.4549 38.4502Z" fill="url(#paint0_linear_380_244)"/>
<path d="M32.0341 28.6475L27.1387 23.7433L32.0336 18.84L37.9433 22.2028C38.6937 22.6299 39.1151 23.1803 39.1855 23.7428V23.7451C39.1151 24.3062 38.6937 24.8572 37.9433 25.2841L32.0341 28.6474" fill="url(#paint1_linear_380_244)"/>
<path d="M13.5023 38.8369C13.0921 38.8373 12.7342 38.7033 12.4551 38.451V38.4507L27.1379 23.744L32.0333 28.6482L14.83 38.4386C14.3541 38.7089 13.9031 38.8369 13.5023 38.8369Z" fill="url(#paint2_linear_380_244)"/>
<path d="M27.1394 23.7427L12.4551 9.03508C12.7342 8.78326 13.0917 8.64972 13.5013 8.64972C13.9032 8.64972 14.3546 8.77814 14.8315 9.04895L32.0343 18.8393L27.1393 23.7427" fill="url(#paint3_linear_380_244)"/>
<path d="M13.5029 39.0098C13.0927 39.0098 12.7343 38.8757 12.4552 38.6235L12.4547 38.6239C12.4535 38.6228 12.4523 38.6217 12.451 38.6207L12.3747 38.546C12.3723 38.5437 12.37 38.541 12.3672 38.5382L12.4552 38.4501C12.7344 38.7023 13.0922 38.8363 13.5025 38.8358C13.9033 38.8358 14.3543 38.7079 14.8302 38.4376L32.0334 28.6472L32.1436 28.7576L32.032 28.8211L14.8301 38.611C14.3964 38.8572 13.9838 38.9857 13.6112 39.007C13.5751 39.0088 13.539 39.0097 13.5029 39.0097" fill="url(#paint4_linear_380_244)"/>
<path d="M12.3669 38.5386C12.022 38.1731 11.8184 37.606 11.8184 36.8706V36.6976C11.8184 37.4325 12.022 38.0001 12.3669 38.3656L12.4549 38.45L12.3669 38.5386Z" fill="url(#paint5_linear_380_244)"/>
<path d="M32.1454 28.7578L32.0352 28.6473L37.9443 25.2841C38.6948 24.8571 39.1161 24.3061 39.1866 23.745C39.1866 23.9509 39.1407 24.1568 39.0496 24.3572C38.8657 24.7611 38.4973 25.1427 37.9444 25.4575L32.1454 28.7578" fill="url(#paint6_linear_380_244)"/>
<path d="M39.1851 23.7427C39.1147 23.1802 38.6934 22.6298 37.9429 22.2026L32.0332 18.8398L32.1434 18.7294H32.1439L37.9429 22.0297C38.7703 22.5008 39.1846 23.1217 39.1851 23.7427Z" fill="url(#paint7_linear_380_244)"/>
<path d="M11.8184 10.7896V10.6082C11.8184 10.5427 11.8201 10.4788 11.8235 10.4167V10.4139C11.8235 10.413 11.8235 10.4121 11.8238 10.4111V10.4041C11.8595 9.77113 12.0558 9.27736 12.3669 8.94765L12.4535 9.03478C12.0558 9.39426 11.8184 9.99376 11.8184 10.7896Z" fill="url(#paint8_linear_380_244)"/>
<path d="M32.0329 18.8398L14.8302 9.04936C14.3533 8.7786 13.902 8.65019 13.5001 8.65019C13.0904 8.65019 12.7329 8.78372 12.4538 9.03554L12.3672 8.94837C12.3942 8.91967 12.4224 8.892 12.4515 8.86541C12.4524 8.86444 12.4538 8.86348 12.4547 8.86258C12.7316 8.61268 13.0853 8.47914 13.4914 8.47674H13.5001C13.902 8.47674 14.3533 8.60521 14.8302 8.87608L32.1436 18.729L32.1432 18.7294L32.0329 18.8398Z" fill="url(#paint9_linear_380_244)"/>
<defs>
<linearGradient id="paint0_linear_380_244" x1="21.2025" y1="10.3398" x2="8.54795" y2="23.0147" gradientUnits="userSpaceOnUse">
<stop stop-color="#00A0FF"/>
<stop offset="0.00657" stop-color="#00A1FF"/>
<stop offset="0.2601" stop-color="#00BEFF"/>
<stop offset="0.5122" stop-color="#00D2FF"/>
<stop offset="0.7604" stop-color="#00DFFF"/>
<stop offset="1" stop-color="#00E3FF"/>
</linearGradient>
<linearGradient id="paint1_linear_380_244" x1="40.0998" y1="23.6586" x2="11.4219" y2="23.6586" gradientUnits="userSpaceOnUse">
<stop stop-color="#FFE000"/>
<stop offset="0.4087" stop-color="#FFBD00"/>
<stop offset="0.7754" stop-color="#FFA500"/>
<stop offset="1" stop-color="#FF9C00"/>
</linearGradient>
<linearGradient id="paint2_linear_380_244" x1="29.4342" y1="28.4067" x2="7.99022" y2="49.7284" gradientUnits="userSpaceOnUse">
<stop stop-color="#FF3A44"/>
<stop offset="1" stop-color="#C31162"/>
</linearGradient>
<linearGradient id="paint3_linear_380_244" x1="8.67053" y1="6.8546" x2="18.2277" y2="16.3718" gradientUnits="userSpaceOnUse">
<stop stop-color="#32A071"/>
<stop offset="0.0685" stop-color="#2DA771"/>
<stop offset="0.4762" stop-color="#15CF74"/>
<stop offset="0.8009" stop-color="#06E775"/>
<stop offset="1" stop-color="#00F076"/>
</linearGradient>
<linearGradient id="paint4_linear_380_244" x1="29.4237" y1="31.8075" x2="12.2503" y2="49.0087" gradientUnits="userSpaceOnUse">
<stop stop-color="#CC2E36"/>
<stop offset="1" stop-color="#9C0E4E"/>
</linearGradient>
<linearGradient id="paint5_linear_380_244" x1="13.7745" y1="10.3396" x2="2.62607" y2="21.5062" gradientUnits="userSpaceOnUse">
<stop stop-color="#008DE0"/>
<stop offset="0.00657" stop-color="#008DE0"/>
<stop offset="0.2601" stop-color="#00A7E0"/>
<stop offset="0.5122" stop-color="#00B8E0"/>
<stop offset="0.7604" stop-color="#00C4E0"/>
<stop offset="1" stop-color="#00C7E0"/>
</linearGradient>
<linearGradient id="paint6_linear_380_244" x1="40.101" y1="23.7439" x2="11.423" y2="23.7439" gradientUnits="userSpaceOnUse">
<stop stop-color="#E0C500"/>
<stop offset="0.4087" stop-color="#E0A600"/>
<stop offset="0.7754" stop-color="#E09100"/>
<stop offset="1" stop-color="#E08900"/>
</linearGradient>
<linearGradient id="paint7_linear_380_244" x1="40.0995" y1="23.7438" x2="11.4216" y2="23.7438" gradientUnits="userSpaceOnUse">
<stop stop-color="#FFE840"/>
<stop offset="0.4087" stop-color="#FFCE40"/>
<stop offset="0.7754" stop-color="#FFBC40"/>
<stop offset="1" stop-color="#FFB540"/>
</linearGradient>
<linearGradient id="paint8_linear_380_244" x1="13.7624" y1="10.3588" x2="3.0245" y2="20.6482" gradientUnits="userSpaceOnUse">
<stop stop-color="#40B8FF"/>
<stop offset="0.00657" stop-color="#40B9FF"/>
<stop offset="0.2601" stop-color="#40CEFF"/>
<stop offset="0.5122" stop-color="#40DDFF"/>
<stop offset="0.7604" stop-color="#40E7FF"/>
<stop offset="1" stop-color="#40EAFF"/>
</linearGradient>
<linearGradient id="paint9_linear_380_244" x1="8.64783" y1="9.96545" x2="16.3165" y2="17.6466" gradientUnits="userSpaceOnUse">
<stop stop-color="#65B895"/>
<stop offset="0.0685" stop-color="#62BD95"/>
<stop offset="0.4762" stop-color="#50DB97"/>
<stop offset="0.8009" stop-color="#44ED98"/>
<stop offset="1" stop-color="#40F498"/>
</linearGradient>
</defs>
</svg>
