<svg width="26" height="24" viewBox="0 0 26 24" fill="none" xmlns="http://www.w3.org/2000/svg">
<path d="M19.75 14.25L16 18L10 16.5L4.75 12.75" stroke="#2054D5" stroke-width="2" stroke-linecap="round" stroke-linejoin="round"/>
<path d="M7.81375 6.62156L13 5.25L18.1863 6.62156" stroke="#2054D5" stroke-width="2" stroke-linecap="round" stroke-linejoin="round"/>
<path d="M4.22219 5.66439L1.82969 10.4513C1.74077 10.6291 1.72608 10.8349 1.78884 11.0235C1.85159 11.2121 1.98667 11.3681 2.16438 11.4572L4.75 12.75L7.81375 6.62158L5.22906 5.3297C5.14098 5.28553 5.04506 5.25915 4.94678 5.25206C4.8485 5.24498 4.74978 5.25733 4.65627 5.28841C4.56277 5.31949 4.4763 5.3687 4.40182 5.43321C4.32734 5.49772 4.2663 5.57628 4.22219 5.66439Z" stroke="#2054D5" stroke-width="2" stroke-linecap="round" stroke-linejoin="round"/>
<path d="M21.25 12.75L23.8356 11.4572C24.0133 11.3681 24.1484 11.2121 24.2112 11.0235C24.2739 10.8349 24.2592 10.6291 24.1703 10.4513L21.7778 5.66439C21.7337 5.57628 21.6727 5.49772 21.5982 5.43321C21.5237 5.3687 21.4372 5.31949 21.3437 5.28841C21.2502 5.25733 21.1515 5.24498 21.0532 5.25206C20.9549 5.25915 20.859 5.28553 20.7709 5.3297L18.1862 6.62158L21.25 12.75Z" stroke="#2054D5" stroke-width="2" stroke-linecap="round" stroke-linejoin="round"/>
<path d="M18.25 6.75H14.5L10.2194 10.9022C10.1398 10.9817 10.0791 11.0781 10.0419 11.1843C10.0046 11.2905 9.99174 11.4037 10.0042 11.5155C10.0166 11.6273 10.054 11.7349 10.1137 11.8303C10.1733 11.9257 10.2537 12.0064 10.3488 12.0666C11.9903 13.1156 14.2188 13.0434 16 11.25L19.75 14.25L21.25 12.75" stroke="#2054D5" stroke-width="2" stroke-linecap="round" stroke-linejoin="round"/>
<path d="M12.6306 20.25L8.71937 19.2722L6.25 17.5078" stroke="#2054D5" stroke-width="2" stroke-linecap="round" stroke-linejoin="round"/>
</svg>
