<svg width="160" height="48" viewBox="0 0 160 48" fill="none" xmlns="http://www.w3.org/2000/svg">
<path d="M154.074 47.4841H5.92593C2.66671 47.4841 0 44.8131 0 41.5486V5.93554C0 2.67098 2.66665 0 5.92593 0H154.074C157.333 0 160 2.67098 160 5.93554V41.5485C160 44.8131 157.333 47.4841 154.074 47.4841" fill="black"/>
<path d="M56.1992 12.1602C56.1992 13.1548 55.9052 13.9468 55.3163 14.5376C54.6473 15.2401 53.7755 15.5917 52.7037 15.5917C51.6774 15.5917 50.8047 15.2355 50.0871 14.5223C49.3682 13.8096 49.0094 12.9258 49.0094 11.8713C49.0094 10.8163 49.3682 9.93302 50.0871 9.21971C50.8047 8.50704 51.6774 8.15039 52.7037 8.15039C53.213 8.15039 53.7006 8.25016 54.1635 8.4491C54.6265 8.64853 54.9978 8.91326 55.2756 9.24478L54.6505 9.87123C54.1797 9.30784 53.5316 9.02636 52.7037 9.02636C51.9552 9.02636 51.308 9.28981 50.7617 9.81703C50.2153 10.3448 49.9422 11.0292 49.9422 11.8713C49.9422 12.7134 50.2153 13.3978 50.7617 13.9256C51.308 14.4528 51.9552 14.7162 52.7037 14.7162C53.4978 14.7162 54.1598 14.4513 54.6899 13.9209C55.0339 13.5754 55.2329 13.095 55.2861 12.4782H52.7037V11.6227H56.1496C56.1829 11.8087 56.1991 11.9873 56.1991 12.1602" fill="white"/>
<path d="M56.1993 12.1608H56.0807C56.0798 13.1327 55.7964 13.8875 55.2324 14.4542L55.2312 14.4552L55.2307 14.4561C54.583 15.1344 53.7505 15.4721 52.7037 15.4735C51.7048 15.4721 50.8686 15.1308 50.1704 14.4389C49.4737 13.7457 49.1292 12.8994 49.1279 11.8718C49.1292 10.8438 49.4737 9.99795 50.1704 9.30519C50.8686 8.61285 51.7048 8.27108 52.7037 8.26964C53.1977 8.26964 53.6681 8.36621 54.1167 8.55859C54.5658 8.75247 54.9205 9.00653 55.1848 9.32194L55.2756 9.24533L55.1918 9.16141L54.5667 9.78828L54.6505 9.87178L54.7418 9.79581C54.2491 9.20451 53.5575 8.90644 52.7038 8.9082C51.9274 8.90724 51.2446 9.18509 50.6797 9.73232C50.1093 10.2813 49.8228 11.0042 49.8238 11.8718C49.8228 12.7395 50.1093 13.4623 50.6797 14.0114C51.2446 14.5586 51.9274 14.8364 52.7037 14.8354C53.5241 14.8369 54.2233 14.5581 54.7737 14.0054C55.1413 13.6362 55.3497 13.1248 55.4043 12.489L55.4153 12.3601H52.8223V11.742H56.1497V11.6232L56.0329 11.6441C56.0654 11.8241 56.0807 11.9952 56.0807 12.1608H56.3177C56.3177 11.9803 56.301 11.7949 56.2663 11.602L56.2487 11.5045H52.5853V12.5975H55.2862V12.4788L55.1682 12.4686C55.1159 13.0659 54.926 13.5157 54.6061 13.8376C54.0969 14.3458 53.4719 14.5966 52.7038 14.598C51.983 14.597 51.3714 14.3485 50.8441 13.8407C50.3219 13.3348 50.0621 12.6889 50.0608 11.8718C50.0621 11.0547 50.3219 10.4088 50.8441 9.90288C51.3714 9.39514 51.9829 9.14658 52.7038 9.14562C53.5052 9.14754 54.1104 9.41274 54.5599 9.94834L54.6432 10.0476L55.3594 9.3293L55.4363 9.25237L55.3663 9.16925C55.0751 8.82156 54.6871 8.54557 54.2103 8.3407C53.7325 8.1352 53.2284 8.03223 52.7038 8.03223C51.6501 8.03132 50.7409 8.40227 50.0033 9.13639C49.2631 9.86906 48.8899 10.79 48.891 11.8718C48.8899 12.9531 49.2631 13.8746 50.0038 14.6077C50.7409 15.3413 51.6501 15.7119 52.7038 15.7109C53.801 15.7119 54.7113 15.3468 55.402 14.6202L55.3163 14.5381L55.4001 14.6221C56.014 14.0077 56.3186 13.1776 56.3178 12.1608H56.1992H56.1993ZM61.6621 9.18552H58.4237V11.4439H61.3441V12.2997H58.4237V14.5581H61.6621V15.4331H57.5108V8.31051H61.6621V9.18552Z" fill="white"/>
<path d="M61.6625 9.18464V9.06593H58.3056V11.5617H61.226V12.1798L58.3055 12.1801V14.6759H61.5439V15.3135H57.6296V8.42833H61.5439V9.18464H61.6625V9.06593V9.18464H61.781V8.19092H57.3926V15.5509H61.781V14.4385H58.5425V12.4176H61.463V11.3243H58.5425V9.30334H61.781V9.18464H61.6625ZM65.5157 15.4323H64.6014V9.18458H62.6152V8.30957H67.5019V9.18458H65.5157V15.4322" fill="white"/>
<path d="M65.5157 15.4323V15.3135H64.7199V9.06593H62.7338V8.42838H67.3834V9.06593H65.3972V15.4322H65.5157V15.3135V15.4322H65.6343V9.30334H67.6204V8.19092H62.4968V9.30329H64.4829V15.5509H65.6343V15.4322H65.5157V15.4323ZM71.0375 15.4323V8.30957H71.951V15.4322H71.0375" fill="white"/>
<path d="M71.0374 15.4323H71.156V8.42833H71.8323V15.3135H71.0374V15.4322H71.156H71.0374V15.5509H72.0693V8.19092H70.9189V15.5509H71.0374V15.4322V15.4323ZM76.004 15.4323H75.0897V9.18458H73.1037V8.30957H77.9902V9.18458H76.004V15.4322" fill="white"/>
<path d="M76.0042 15.4326V15.3139H75.2084V9.06627H73.2224V8.42872H77.8718V9.06627H75.8857V15.4326H76.0042V15.3139V15.4326H76.1228V9.30368H78.1089V8.19126H72.9853V9.30363H74.9713V15.5512H76.1228V15.4325H76.0042V15.4326ZM82.7015 13.9158C83.2278 14.4495 83.8719 14.7161 84.6335 14.7161C85.395 14.7161 86.0394 14.4495 86.5649 13.9158C87.0918 13.3821 87.3557 12.6999 87.3557 11.8713C87.3557 11.0427 87.0918 10.3605 86.5649 9.82674C86.0394 9.29301 85.395 9.02636 84.6335 9.02636C83.8719 9.02636 83.2278 9.29301 82.7015 9.82674C82.176 10.3605 81.9122 11.0427 81.9122 11.8713C81.9122 12.6999 82.176 13.3821 82.7015 13.9158ZM87.2408 14.5121C86.5417 15.2322 85.6723 15.5917 84.6335 15.5917C83.5936 15.5917 82.7245 15.2322 82.027 14.5121C81.3274 13.7928 80.9793 12.9124 80.9793 11.8713C80.9793 10.8302 81.3274 9.94955 82.027 9.23043C82.7246 8.51019 83.5936 8.15039 84.6335 8.15039C85.6668 8.15039 86.5339 8.51211 87.2362 9.23507C87.9376 9.95798 88.2885 10.8367 88.2885 11.8713C88.2885 12.9124 87.9385 13.7928 87.2408 14.5121Z" fill="white"/>
<path d="M82.7013 13.9164L82.617 13.9998C83.1629 14.5549 83.8439 14.8369 84.6333 14.8354C85.4221 14.8369 86.104 14.5549 86.649 13.9998C87.1985 13.4442 87.4748 12.7255 87.474 11.8718C87.4748 11.0182 87.1985 10.2994 86.649 9.74379C86.104 9.18872 85.4221 8.90682 84.6333 8.9082C83.8439 8.90682 83.1629 9.18872 82.617 9.74379C82.0689 10.2994 81.792 11.0182 81.7934 11.8718C81.792 12.7254 82.0689 13.4442 82.617 13.9998L82.7013 13.9164L82.7856 13.8329C82.2828 13.3205 82.0314 12.6759 82.0305 11.8718C82.0314 11.0678 82.2828 10.4232 82.7855 9.91073C83.2929 9.39839 83.8989 9.14706 84.6333 9.14567C85.367 9.14706 85.9744 9.39839 86.4805 9.91073C86.9842 10.4232 87.2356 11.0678 87.2365 11.8718C87.2356 12.6758 86.9842 13.3205 86.4805 13.8329C85.9744 14.3453 85.367 14.5966 84.6333 14.598C83.8989 14.5966 83.2929 14.3453 82.7855 13.8329L82.7013 13.9164ZM87.2406 14.5126L87.1559 14.4302C86.4763 15.1276 85.6453 15.4721 84.6333 15.4735C83.6208 15.4721 82.7897 15.1276 82.1114 14.4302L82.1082 14.4264L82.1114 14.4302C81.4332 13.7304 81.0986 12.8864 81.0976 11.8718C81.0986 10.8572 81.4332 10.0133 82.1114 9.31351C82.7897 8.61605 83.6207 8.27108 84.6333 8.2697C85.6388 8.27108 86.4679 8.61749 87.1513 9.31858C87.8318 10.0216 88.1684 10.8642 88.1699 11.8718C88.1684 12.8864 87.8328 13.7304 87.1559 14.4302L87.2406 14.5126L87.3259 14.5951C88.0443 13.856 88.4077 12.9393 88.4069 11.8718C88.4077 10.8104 88.0429 9.89552 87.3211 9.15314C86.599 8.40782 85.6944 8.03095 84.6333 8.03223C83.5666 8.03095 82.6592 8.40606 81.9416 9.1485V9.14796C81.2217 9.88757 80.8596 10.8044 80.8606 11.8718C80.8596 12.9393 81.2217 13.856 81.9416 14.5956L81.9448 14.599L81.9416 14.5951C82.6592 15.3376 83.5666 15.7119 84.6333 15.7109C85.6994 15.7119 86.6068 15.3376 87.3259 14.5951L87.2406 14.5126ZM89.5707 15.4332V8.31046H90.6828L94.1388 13.8514H94.1782L94.1388 12.4787V8.31046H95.0532V15.4331H94.0994L90.4837 9.62364H90.4443L90.4837 10.9967V15.4331H89.5707" fill="white"/>
<path d="M89.5708 15.4323H89.6894V8.42833H90.6172L94.0731 13.9692H94.3L94.2574 12.4761V8.42838H94.9348V15.3135H94.1653L90.5496 9.50411H90.3228L90.3653 10.9978V15.3135H89.5709V15.4322H89.6894H89.5709V15.5509H90.6023V10.994L90.563 9.61961L90.4445 9.62281V9.74152H90.4838V9.62281L90.3833 9.68593L94.0338 15.5509H95.1718V8.19092H94.0204V12.4793L94.0598 13.8537L94.1783 13.8505V13.7318H94.1389V13.8505L94.2394 13.7875L90.7486 8.19092H89.4524V15.5509H89.5709V15.4322L89.5708 15.4323ZM126.739 35.613H128.951V20.7728H126.739L126.739 35.613ZM146.658 26.1186L144.123 32.5525H144.047L141.416 26.1185H139.034L142.98 35.1112L140.73 40.1133H143.038L149.118 26.1185L146.658 26.1186ZM134.117 33.9274C133.391 33.9274 132.382 33.5648 132.382 32.6671C132.382 31.5216 133.64 31.0825 134.726 31.0825C135.699 31.0825 136.155 31.2925 136.747 31.5792C136.575 32.9536 135.393 33.9274 134.117 33.9274ZM134.383 25.7939C132.782 25.7939 131.124 26.5005 130.438 28.0661L132.401 28.8869C132.82 28.0661 133.601 27.7985 134.421 27.7985C135.565 27.7985 136.728 28.4862 136.747 29.7081V29.8607C136.346 29.6316 135.489 29.288 134.44 29.288C132.325 29.288 130.17 30.4523 130.17 32.629C130.17 34.6147 131.905 35.894 133.849 35.894C135.336 35.894 136.155 35.2257 136.671 34.4431H136.747V35.5884H138.881V29.8986C138.881 27.2644 136.919 25.7939 134.383 25.7939ZM120.716 27.9251H117.57V22.8382H120.716C122.369 22.8382 123.308 24.2094 123.308 25.3816C123.308 26.5316 122.369 27.9251 120.716 27.9251ZM120.659 20.7728H115.36V35.613H117.57V29.9905H120.659C123.11 29.9905 125.519 28.213 125.519 25.3816C125.519 22.5502 123.11 20.7728 120.659 20.7728ZM91.763 33.9302C90.2352 33.9302 88.956 32.6489 88.956 30.8891C88.956 29.1109 90.2352 27.8101 91.763 27.8101C93.2714 27.8101 94.4551 29.1108 94.4551 30.8891C94.4551 32.6489 93.2714 33.9302 91.763 33.9302H91.763ZM94.3023 26.9495H94.2259C93.7297 26.3568 92.7745 25.8213 91.5718 25.8213C89.0514 25.8213 86.7412 28.0397 86.7412 30.8891C86.7412 33.7197 89.0514 35.919 91.5718 35.919C92.7745 35.919 93.7297 35.3834 94.2259 34.7718H94.3023V35.4984C94.3023 37.4303 93.2714 38.463 91.6102 38.463C90.2546 38.463 89.4144 37.4873 89.0703 36.6651L87.1422 37.4683C87.6959 38.807 89.1662 40.4519 91.6102 40.4519C94.2069 40.4519 96.4028 38.9215 96.4028 35.1924V26.1273H94.3023V26.9495ZM97.9301 35.613H100.145V20.7723H97.9301V35.613ZM103.41 30.7171C103.353 28.7662 104.919 27.772 106.045 27.772C106.924 27.772 107.668 28.2117 107.916 28.8433L103.41 30.7171ZM110.284 29.0343C109.864 27.9056 108.584 25.8213 105.968 25.8213C103.372 25.8213 101.214 27.8676 101.214 30.8702C101.214 33.7007 103.353 35.919 106.217 35.919C108.527 35.919 109.864 34.5037 110.418 33.6815L108.699 32.5339C108.127 33.3755 107.343 33.9302 106.217 33.9302C105.09 33.9302 104.289 33.4136 103.773 32.4003L110.513 29.6079L110.284 29.0343ZM56.5853 27.3705V29.5124H61.7023C61.5495 30.7171 61.1486 31.5968 60.5375 32.2088C59.7931 32.955 58.6283 33.7772 56.5852 33.7772C53.4347 33.7772 50.9718 31.2336 50.9718 28.0781C50.9718 24.9226 53.4347 22.3787 56.5853 22.3787C58.2847 22.3787 59.5255 23.0482 60.4421 23.9088L61.9505 22.3981C60.6713 21.1739 58.9718 20.2368 56.5853 20.2368C52.2699 20.2368 48.6421 23.7559 48.6421 28.0781C48.6421 32.4003 52.2699 35.919 56.5853 35.919C58.9148 35.919 60.6713 35.1544 62.0459 33.7197C63.4589 32.3044 63.8982 30.3156 63.8982 28.7093C63.8982 28.2117 63.8602 27.7531 63.7834 27.3705H56.5853ZM69.7158 33.9302C68.188 33.9302 66.8704 32.6679 66.8704 30.8702C66.8704 29.0533 68.188 27.8101 69.7158 27.8101C71.243 27.8101 72.5606 29.0533 72.5606 30.8702C72.5606 32.6679 71.243 33.9302 69.7158 33.9302ZM69.7158 25.8213C66.9278 25.8213 64.6555 27.944 64.6555 30.8702C64.6555 33.7772 66.9278 35.919 69.7158 35.919C72.5032 35.919 74.7755 33.7772 74.7755 30.8702C74.7755 27.944 72.5032 25.8213 69.7158 25.8213ZM80.7536 33.9302C79.2265 33.9302 77.9087 32.6679 77.9087 30.8702C77.9087 29.0533 79.2265 27.8101 80.7537 27.8101C82.281 27.8101 83.5986 29.0533 83.5986 30.8702C83.5986 32.6679 82.281 33.9302 80.7537 33.9302H80.7536ZM80.7536 25.8213C77.9658 25.8213 75.694 27.944 75.694 30.8702C75.694 33.7772 77.9658 35.919 80.7537 35.919C83.5412 35.919 85.8135 33.7772 85.8135 30.8702C85.8135 27.944 83.5412 25.8213 80.7537 25.8213H80.7536Z" fill="white"/>
<path d="M12.4544 9.03526C12.0567 9.39468 11.8193 9.99419 11.8193 10.79V10.6101V36.8701V36.6971C11.8193 37.432 12.0229 37.9996 12.3678 38.3651L12.4558 38.4495V38.4499C12.7349 38.7022 13.0929 38.8361 13.5031 38.8357C13.9039 38.8357 14.3549 38.7077 14.8308 38.4374L32.0341 28.6471L37.9432 25.2837C38.6937 24.8567 39.115 24.3058 39.1855 23.7447V23.7424C39.115 23.1799 38.6937 22.6295 37.9433 22.2024L32.0336 18.8395L14.8309 9.04913C14.3539 8.77837 13.9026 8.6499 13.5007 8.6499C13.091 8.6499 12.7336 8.78344 12.4545 9.03526H12.4544Z" fill="#00C1FF"/>
<path d="M12.4559 38.4502L12.3678 38.3658C12.0229 38.0003 11.8193 37.4327 11.8193 36.6978V36.8708V10.6173V10.7907C11.8193 9.99489 12.0567 9.39539 12.4544 9.03596L27.1387 23.7436L12.4559 38.4502Z" fill="url(#paint0_linear_281_16094)"/>
<path d="M32.0345 28.6475L27.1391 23.7433L32.0341 18.84L37.9438 22.2028C38.6942 22.6299 39.1155 23.1803 39.186 23.7428V23.7451C39.1155 24.3062 38.6942 24.8572 37.9438 25.2841L32.0346 28.6474" fill="url(#paint1_linear_281_16094)"/>
<path d="M13.5032 38.8369C13.0931 38.8373 12.7351 38.7033 12.456 38.451V38.4507L27.1388 23.744L32.0342 28.6482L14.831 38.4386C14.355 38.7089 13.904 38.8369 13.5032 38.8369Z" fill="url(#paint2_linear_281_16094)"/>
<path d="M27.1391 23.7427L12.4548 9.03508C12.7339 8.78326 13.0914 8.64972 13.5011 8.64972C13.903 8.64972 14.3543 8.77814 14.8312 9.04895L32.034 18.8393L27.139 23.7427" fill="url(#paint3_linear_281_16094)"/>
<path d="M13.5035 39.0098C13.0934 39.0098 12.735 38.8757 12.4558 38.6235L12.4554 38.6239C12.4542 38.6228 12.453 38.6217 12.4517 38.6207L12.3753 38.546C12.3729 38.5437 12.3707 38.541 12.3679 38.5382L12.4559 38.4501C12.735 38.7023 13.0929 38.8363 13.5032 38.8358C13.9039 38.8358 14.3549 38.7079 14.8309 38.4376L32.0341 28.6472L32.1443 28.7576L32.0327 28.8211L14.8308 38.611C14.3971 38.8572 13.9845 38.9857 13.6118 39.007C13.5758 39.0088 13.5397 39.0097 13.5035 39.0097" fill="url(#paint4_linear_281_16094)"/>
<path d="M12.3678 38.5386C12.0229 38.1731 11.8193 37.606 11.8193 36.8706V36.6976C11.8193 37.4325 12.0229 38.0001 12.3678 38.3656L12.4558 38.45L12.3678 38.5386Z" fill="url(#paint5_linear_281_16094)"/>
<path d="M32.1448 28.7578L32.0346 28.6473L37.9438 25.2841C38.6943 24.8571 39.1156 24.3061 39.186 23.745C39.186 23.9509 39.1402 24.1568 39.049 24.3572C38.8652 24.7611 38.4967 25.1427 37.9439 25.4575L32.1448 28.7578" fill="url(#paint6_linear_281_16094)"/>
<path d="M39.1857 23.7427C39.1153 23.1802 38.6939 22.6298 37.9435 22.2026L32.0338 18.8398L32.144 18.7294H32.1445L37.9435 22.0297C38.7709 22.5008 39.1852 23.1217 39.1857 23.7427Z" fill="url(#paint7_linear_281_16094)"/>
<path d="M11.8193 10.7896V10.6082C11.8193 10.5427 11.821 10.4788 11.8244 10.4167V10.4139C11.8244 10.413 11.8244 10.4121 11.8247 10.4111V10.4041C11.8604 9.77113 12.0567 9.27736 12.3678 8.94765L12.4544 9.03478C12.0567 9.39426 11.8193 9.99376 11.8193 10.7896Z" fill="url(#paint8_linear_281_16094)"/>
<path d="M32.0336 18.8398L14.8309 9.04936C14.354 8.7786 13.9027 8.65019 13.5008 8.65019C13.091 8.65019 12.7336 8.78372 12.4545 9.03554L12.3679 8.94837C12.3949 8.91967 12.423 8.892 12.4522 8.86541C12.4531 8.86444 12.4545 8.86348 12.4554 8.86258C12.7323 8.61268 13.086 8.47914 13.492 8.47674H13.5008C13.9027 8.47674 14.354 8.60521 14.8309 8.87608L32.1443 18.729L32.1438 18.7294L32.0336 18.8398Z" fill="url(#paint9_linear_281_16094)"/>
<defs>
<linearGradient id="paint0_linear_281_16094" x1="21.2034" y1="10.3398" x2="8.54887" y2="23.0147" gradientUnits="userSpaceOnUse">
<stop stop-color="#00A0FF"/>
<stop offset="0.00657" stop-color="#00A1FF"/>
<stop offset="0.2601" stop-color="#00BEFF"/>
<stop offset="0.5122" stop-color="#00D2FF"/>
<stop offset="0.7604" stop-color="#00DFFF"/>
<stop offset="1" stop-color="#00E3FF"/>
</linearGradient>
<linearGradient id="paint1_linear_281_16094" x1="40.1003" y1="23.6586" x2="11.4224" y2="23.6586" gradientUnits="userSpaceOnUse">
<stop stop-color="#FFE000"/>
<stop offset="0.4087" stop-color="#FFBD00"/>
<stop offset="0.7754" stop-color="#FFA500"/>
<stop offset="1" stop-color="#FF9C00"/>
</linearGradient>
<linearGradient id="paint2_linear_281_16094" x1="29.4352" y1="28.4067" x2="7.99118" y2="49.7284" gradientUnits="userSpaceOnUse">
<stop stop-color="#FF3A44"/>
<stop offset="1" stop-color="#C31162"/>
</linearGradient>
<linearGradient id="paint3_linear_281_16094" x1="8.67025" y1="6.8546" x2="18.2274" y2="16.3718" gradientUnits="userSpaceOnUse">
<stop stop-color="#32A071"/>
<stop offset="0.0685" stop-color="#2DA771"/>
<stop offset="0.4762" stop-color="#15CF74"/>
<stop offset="0.8009" stop-color="#06E775"/>
<stop offset="1" stop-color="#00F076"/>
</linearGradient>
<linearGradient id="paint4_linear_281_16094" x1="29.4244" y1="31.8075" x2="12.2509" y2="49.0087" gradientUnits="userSpaceOnUse">
<stop stop-color="#CC2E36"/>
<stop offset="1" stop-color="#9C0E4E"/>
</linearGradient>
<linearGradient id="paint5_linear_281_16094" x1="13.7754" y1="10.3396" x2="2.62698" y2="21.5062" gradientUnits="userSpaceOnUse">
<stop stop-color="#008DE0"/>
<stop offset="0.00657" stop-color="#008DE0"/>
<stop offset="0.2601" stop-color="#00A7E0"/>
<stop offset="0.5122" stop-color="#00B8E0"/>
<stop offset="0.7604" stop-color="#00C4E0"/>
<stop offset="1" stop-color="#00C7E0"/>
</linearGradient>
<linearGradient id="paint6_linear_281_16094" x1="40.1004" y1="23.7439" x2="11.4224" y2="23.7439" gradientUnits="userSpaceOnUse">
<stop stop-color="#E0C500"/>
<stop offset="0.4087" stop-color="#E0A600"/>
<stop offset="0.7754" stop-color="#E09100"/>
<stop offset="1" stop-color="#E08900"/>
</linearGradient>
<linearGradient id="paint7_linear_281_16094" x1="40.1001" y1="23.7438" x2="11.4222" y2="23.7438" gradientUnits="userSpaceOnUse">
<stop stop-color="#FFE840"/>
<stop offset="0.4087" stop-color="#FFCE40"/>
<stop offset="0.7754" stop-color="#FFBC40"/>
<stop offset="1" stop-color="#FFB540"/>
</linearGradient>
<linearGradient id="paint8_linear_281_16094" x1="13.7633" y1="10.3588" x2="3.02541" y2="20.6482" gradientUnits="userSpaceOnUse">
<stop stop-color="#40B8FF"/>
<stop offset="0.00657" stop-color="#40B9FF"/>
<stop offset="0.2601" stop-color="#40CEFF"/>
<stop offset="0.5122" stop-color="#40DDFF"/>
<stop offset="0.7604" stop-color="#40E7FF"/>
<stop offset="1" stop-color="#40EAFF"/>
</linearGradient>
<linearGradient id="paint9_linear_281_16094" x1="8.6485" y1="9.96545" x2="16.3172" y2="17.6466" gradientUnits="userSpaceOnUse">
<stop stop-color="#65B895"/>
<stop offset="0.0685" stop-color="#62BD95"/>
<stop offset="0.4762" stop-color="#50DB97"/>
<stop offset="0.8009" stop-color="#44ED98"/>
<stop offset="1" stop-color="#40F498"/>
</linearGradient>
</defs>
</svg>
