<svg width="109" height="40" viewBox="0 0 109 40" fill="none" xmlns="http://www.w3.org/2000/svg">
<rect x="0.451538" y="0.127241" width="108.081" height="39.746" rx="6.57299" fill="url(#paint0_linear_326_313)"/>
<rect x="0.751539" y="0.427242" width="107.481" height="39.146" rx="6.27299" stroke="black" stroke-opacity="0.24" stroke-width="0.600002"/>
<path fill-rule="evenodd" clip-rule="evenodd" d="M11.4444 12.0337C11.2596 12.2323 11.1534 12.5379 11.1534 12.935V27.0604C11.1534 27.4576 11.2596 27.7632 11.4513 27.9548L11.5014 27.9971L19.4162 20.0823V19.9045L11.4944 11.9914L11.4444 12.0337Z" fill="url(#paint1_linear_326_313)"/>
<path fill-rule="evenodd" clip-rule="evenodd" d="M22.049 22.731L19.409 20.0901V19.9054L22.0499 17.2645L22.1068 17.2999L25.2303 19.0749C26.1247 19.579 26.1247 20.4095 25.2303 20.9206L22.1068 22.6956C22.106 22.6956 22.049 22.731 22.049 22.731Z" fill="url(#paint2_linear_326_313)"/>
<path fill-rule="evenodd" clip-rule="evenodd" d="M22.1061 22.6956L19.4091 19.9978L11.4442 27.9626C11.7351 28.2751 12.2246 28.3105 12.772 28.0049L22.1061 22.6956Z" fill="url(#paint3_linear_326_313)"/>
<path fill-rule="evenodd" clip-rule="evenodd" d="M22.1061 17.3007L12.772 11.9983C12.2255 11.6858 11.7351 11.7281 11.4442 12.0406L19.4082 19.9977L22.1061 17.3007Z" fill="url(#paint4_linear_326_313)"/>
<path opacity="0.72" d="M39.8302 14.7002V8.75988C39.8493 8.75988 39.9068 8.76125 40.0027 8.76399C40.1013 8.76399 40.2204 8.76399 40.3601 8.76399C40.4998 8.76125 40.6449 8.76125 40.7956 8.76399C40.9462 8.76399 41.0845 8.76536 41.2105 8.7681C41.939 8.77905 42.5292 8.89819 42.9811 9.1255C43.4357 9.35008 43.7685 9.67736 43.9794 10.1073C44.193 10.5373 44.2998 11.0659 44.2998 11.6931C44.2998 12.3504 44.1848 12.9022 43.9547 13.3486C43.7274 13.7951 43.3796 14.1319 42.9112 14.3592C42.4457 14.5866 41.8527 14.7002 41.1324 14.7002H39.8302ZM40.6107 14.047H41.1324C41.6227 14.047 42.0444 13.9717 42.3977 13.8211C42.751 13.6677 43.0222 13.4199 43.2111 13.0775C43.4029 12.7352 43.4987 12.2778 43.4987 11.7054C43.4987 11.133 43.4056 10.6797 43.2194 10.3456C43.0359 10.0115 42.7702 9.77322 42.4224 9.6308C42.0746 9.48565 41.6555 9.41307 41.1653 9.41307H40.6107V14.047ZM47.0716 14.7824C46.68 14.7824 46.3376 14.6989 46.0446 14.5318C45.7543 14.362 45.5283 14.1141 45.3667 13.7882C45.2052 13.4623 45.1244 13.0638 45.1244 12.5928C45.1244 12.1491 45.1997 11.7602 45.3503 11.426C45.5009 11.0919 45.7214 10.8331 46.0117 10.6496C46.302 10.4634 46.6567 10.3703 47.0757 10.3703C47.4674 10.3703 47.807 10.4565 48.0945 10.6291C48.3821 10.7989 48.6053 11.0495 48.7642 11.3809C48.9257 11.7122 49.0065 12.1162 49.0065 12.5928C49.0065 13.0255 48.9326 13.4062 48.7847 13.7348C48.6368 14.0635 48.4191 14.3209 48.1315 14.5071C47.8467 14.6906 47.4934 14.7824 47.0716 14.7824ZM47.0757 14.1826C47.3277 14.1826 47.5413 14.1182 47.7166 13.9895C47.8919 13.8608 48.0247 13.6759 48.1151 13.4349C48.2082 13.1939 48.2548 12.9077 48.2548 12.5763C48.2548 12.2723 48.2137 11.9998 48.1315 11.7588C48.0521 11.5151 47.9261 11.322 47.7536 11.1796C47.581 11.0371 47.3551 10.9659 47.0757 10.9659C46.8183 10.9659 46.6006 11.0303 46.4225 11.159C46.2445 11.285 46.1089 11.4685 46.0158 11.7095C45.9254 11.9505 45.8803 12.2395 45.8803 12.5763C45.8803 12.8748 45.92 13.146 45.9994 13.3897C46.0816 13.6335 46.2103 13.8266 46.3856 13.969C46.5636 14.1114 46.7936 14.1826 47.0757 14.1826ZM50.8601 14.7002L49.5455 10.4524H50.2521L51.2216 13.7184H51.2873L52.2445 10.4524H52.8196L53.8138 13.7102H53.8836L54.8121 10.4524H55.5269L54.2369 14.7002H53.4893L52.5239 11.5657L51.5995 14.7002H50.8601ZM56.3713 14.7002V10.4524H57.1067V11.0686C57.1751 10.9509 57.2696 10.84 57.3901 10.7359C57.5134 10.6318 57.6613 10.5483 57.8338 10.4853C58.0091 10.4223 58.2104 10.3908 58.4377 10.3908C58.7061 10.3908 58.9526 10.4442 59.1772 10.551C59.4045 10.6578 59.5852 10.8249 59.7194 11.0522C59.8564 11.2768 59.9248 11.5671 59.9248 11.9231V14.7002H59.1648V11.9971C59.1648 11.6657 59.0772 11.4206 58.9019 11.2617C58.7294 11.1001 58.5048 11.0193 58.2282 11.0193C58.0365 11.0193 57.8571 11.0508 57.69 11.1138C57.5229 11.1741 57.3874 11.2672 57.2833 11.3932C57.1792 11.5164 57.1272 11.6725 57.1272 11.8615V14.7002H56.3713ZM62.1855 14.7536C61.9555 14.7536 61.7692 14.7221 61.6268 14.6591C61.4871 14.5961 61.379 14.5112 61.3023 14.4044C61.2283 14.2976 61.1777 14.1758 61.1503 14.0388C61.1256 13.8991 61.1133 13.7554 61.1133 13.6075V8.59556H61.861V13.5335C61.861 13.7471 61.9021 13.9074 61.9842 14.0142C62.0691 14.121 62.1869 14.1799 62.3375 14.1908L62.5676 14.1949V14.6879C62.5046 14.7071 62.4388 14.7221 62.3704 14.7331C62.3019 14.7468 62.2403 14.7536 62.1855 14.7536ZM65.1008 14.7824C64.7092 14.7824 64.3668 14.6989 64.0738 14.5318C63.7835 14.362 63.5575 14.1141 63.3959 13.7882C63.2343 13.4623 63.1536 13.0638 63.1536 12.5928C63.1536 12.1491 63.2289 11.7602 63.3795 11.426C63.5301 11.0919 63.7506 10.8331 64.0409 10.6496C64.3312 10.4634 64.6859 10.3703 65.1049 10.3703C65.4966 10.3703 65.8362 10.4565 66.1237 10.6291C66.4113 10.7989 66.6345 11.0495 66.7933 11.3809C66.9549 11.7122 67.0357 12.1162 67.0357 12.5928C67.0357 13.0255 66.9618 13.4062 66.8139 13.7348C66.666 14.0635 66.4483 14.3209 66.1607 14.5071C65.8759 14.6906 65.5226 14.7824 65.1008 14.7824ZM65.1049 14.1826C65.3569 14.1826 65.5705 14.1182 65.7458 13.9895C65.9211 13.8608 66.0539 13.6759 66.1443 13.4349C66.2374 13.1939 66.2839 12.9077 66.2839 12.5763C66.2839 12.2723 66.2429 11.9998 66.1607 11.7588C66.0813 11.5151 65.9553 11.322 65.7827 11.1796C65.6102 11.0371 65.3843 10.9659 65.1049 10.9659C64.8475 10.9659 64.6297 11.0303 64.4517 11.159C64.2737 11.285 64.1381 11.4685 64.045 11.7095C63.9546 11.9505 63.9094 12.2395 63.9094 12.5763C63.9094 12.8748 63.9492 13.146 64.0286 13.3897C64.1107 13.6335 64.2395 13.8266 64.4147 13.969C64.5928 14.1114 64.8228 14.1826 65.1049 14.1826ZM69.189 14.7824C68.9123 14.7824 68.6686 14.7345 68.4577 14.6386C68.2496 14.54 68.0852 14.399 67.9647 14.2155C67.847 14.032 67.7881 13.8101 67.7881 13.5499C67.7881 13.0789 67.9524 12.7283 68.2811 12.4983C68.6097 12.2682 69.1369 12.145 69.8627 12.1285L70.6186 12.108V11.7752C70.6186 11.5151 70.5405 11.3097 70.3844 11.159C70.2283 11.0057 69.9873 10.929 69.6614 10.929C69.4176 10.9317 69.2027 10.9892 69.0164 11.1015C68.8302 11.2138 68.711 11.3973 68.659 11.652H67.9894C68.0058 11.3754 68.0825 11.1426 68.2194 10.9536C68.3591 10.7619 68.5549 10.6167 68.8069 10.5182C69.0589 10.4196 69.356 10.3703 69.6984 10.3703C70.0681 10.3703 70.3748 10.4223 70.6186 10.5264C70.8651 10.6304 71.0486 10.7838 71.1691 10.9865C71.2923 11.1891 71.3539 11.4384 71.3539 11.7342V14.7002H70.7049L70.6473 13.9032C70.4858 14.2346 70.2776 14.4647 70.0229 14.5934C69.7709 14.7194 69.493 14.7824 69.189 14.7824ZM69.4149 14.236C69.5601 14.236 69.7025 14.21 69.8421 14.1579C69.9846 14.1059 70.1133 14.0361 70.2283 13.9484C70.3461 13.8581 70.4406 13.7581 70.5118 13.6485C70.583 13.5363 70.6186 13.4212 70.6186 13.3035V12.5763L69.99 12.5886C69.6641 12.5941 69.393 12.627 69.1766 12.6872C68.9603 12.7475 68.7973 12.842 68.6878 12.9707C68.5782 13.0994 68.5234 13.2679 68.5234 13.476C68.5234 13.7143 68.607 13.9005 68.774 14.0347C68.9411 14.1689 69.1547 14.236 69.4149 14.236ZM74.0878 14.7824C73.5345 14.7824 73.0963 14.5934 72.7732 14.2155C72.4527 13.8375 72.2925 13.2857 72.2925 12.5599C72.2925 12.119 72.3569 11.7342 72.4856 11.4055C72.6143 11.0769 72.8074 10.8222 73.0648 10.6414C73.3223 10.4606 73.6427 10.3703 74.0261 10.3703C74.2315 10.3703 74.4123 10.3963 74.5684 10.4483C74.7245 10.5004 74.8601 10.5661 74.9751 10.6455C75.0901 10.7249 75.1833 10.8071 75.2545 10.892C75.3284 10.9769 75.3832 11.0549 75.4188 11.1262V8.59556H76.187V14.7002H75.6037L75.5215 13.8293C75.4941 13.9115 75.4503 14.0073 75.39 14.1169C75.3298 14.2237 75.2449 14.3291 75.1353 14.4332C75.0285 14.5345 74.8888 14.6181 74.7163 14.6838C74.5438 14.7495 74.3342 14.7824 74.0878 14.7824ZM74.2233 14.199C74.6506 14.199 74.9559 14.0689 75.1394 13.8088C75.3257 13.5458 75.4188 13.1172 75.4188 12.5229C75.4161 12.1915 75.375 11.9094 75.2955 11.6766C75.2161 11.4439 75.0901 11.2672 74.9176 11.1467C74.7478 11.0235 74.5205 10.9618 74.2357 10.9618C73.8878 10.9618 73.6044 11.0864 73.3853 11.3357C73.1662 11.5849 73.0566 11.9806 73.0566 12.5229C73.0566 13.0542 73.1552 13.4664 73.3524 13.7595C73.5496 14.0525 73.8399 14.199 74.2233 14.199ZM80.0063 14.7002V11.007H79.1066V10.4524H80.0063V9.79513C80.0063 9.45826 80.0912 9.20219 80.261 9.02691C80.4335 8.84889 80.691 8.75988 81.0333 8.75988H81.8344L81.8385 9.29804H81.2058C81.0306 9.29804 80.9114 9.3446 80.8484 9.43772C80.7854 9.53084 80.754 9.67188 80.754 9.86086V10.4524H81.7974V11.007H80.7663V14.7002H80.0063ZM82.6889 14.7002V10.4524H83.412V11.2699C83.4832 11.0673 83.5831 10.9002 83.7119 10.7688C83.8406 10.6346 83.9871 10.5346 84.1514 10.4689C84.3185 10.4031 84.491 10.3703 84.6691 10.3703C84.732 10.3703 84.7937 10.3744 84.8539 10.3826C84.9142 10.3908 84.9607 10.4045 84.9936 10.4237V11.159C84.9525 11.1399 84.8991 11.1275 84.8334 11.122C84.7704 11.1138 84.717 11.1097 84.6732 11.1097C84.5034 11.0988 84.3445 11.1097 84.1966 11.1426C84.0487 11.1727 83.9186 11.2261 83.8064 11.3028C83.6941 11.3795 83.6051 11.4808 83.5393 11.6068C83.4763 11.7301 83.4448 11.8807 83.4448 12.0587V14.7002H82.6889ZM87.535 14.7824C87.1433 14.7824 86.801 14.6989 86.508 14.5318C86.2176 14.362 85.9917 14.1141 85.8301 13.7882C85.6685 13.4623 85.5877 13.0638 85.5877 12.5928C85.5877 12.1491 85.663 11.7602 85.8137 11.426C85.9643 11.0919 86.1848 10.8331 86.4751 10.6496C86.7654 10.4634 87.1201 10.3703 87.5391 10.3703C87.9307 10.3703 88.2703 10.4565 88.5579 10.6291C88.8455 10.7989 89.0687 11.0495 89.2275 11.3809C89.3891 11.7122 89.4699 12.1162 89.4699 12.5928C89.4699 13.0255 89.396 13.4062 89.2481 13.7348C89.1002 14.0635 88.8824 14.3209 88.5949 14.5071C88.31 14.6906 87.9567 14.7824 87.535 14.7824ZM87.5391 14.1826C87.7911 14.1826 88.0047 14.1182 88.18 13.9895C88.3552 13.8608 88.4881 13.6759 88.5784 13.4349C88.6716 13.1939 88.7181 12.9077 88.7181 12.5763C88.7181 12.2723 88.677 11.9998 88.5949 11.7588C88.5155 11.5151 88.3895 11.322 88.2169 11.1796C88.0444 11.0371 87.8184 10.9659 87.5391 10.9659C87.2816 10.9659 87.0639 11.0303 86.8859 11.159C86.7079 11.285 86.5723 11.4685 86.4792 11.7095C86.3888 11.9505 86.3436 12.2395 86.3436 12.5763C86.3436 12.8748 86.3833 13.146 86.4628 13.3897C86.5449 13.6335 86.6736 13.8266 86.8489 13.969C87.0269 14.1114 87.257 14.1826 87.5391 14.1826ZM90.4799 14.7002V10.4524H91.2112V11.0686C91.3289 10.8824 91.4905 10.7195 91.6959 10.5798C91.9013 10.4401 92.1684 10.3703 92.497 10.3703C92.6504 10.3703 92.8065 10.3963 92.9653 10.4483C93.1269 10.5004 93.2748 10.5784 93.409 10.6825C93.5432 10.7866 93.6473 10.9139 93.7212 11.0645C93.8527 10.8564 94.0307 10.6893 94.2553 10.5633C94.4799 10.4346 94.7332 10.3703 95.0153 10.3703C95.1632 10.3703 95.3179 10.3935 95.4795 10.4401C95.6411 10.4839 95.7904 10.5633 95.9273 10.6784C96.067 10.7907 96.1806 10.9481 96.2683 11.1508C96.3559 11.3507 96.3997 11.6082 96.3997 11.9231V14.7002H95.6356V11.9971C95.6356 11.7396 95.5945 11.5411 95.5124 11.4014C95.4302 11.259 95.322 11.159 95.1878 11.1015C95.0564 11.044 94.9153 11.0152 94.7647 11.0152C94.6332 11.0152 94.4936 11.0413 94.3457 11.0933C94.1978 11.1453 94.0718 11.233 93.9677 11.3562C93.8636 11.4795 93.8116 11.6479 93.8116 11.8615V14.7002H93.0557V11.7752C93.0557 11.6082 93.0105 11.4685 92.9201 11.3562C92.8325 11.2439 92.7216 11.159 92.5874 11.1015C92.4559 11.044 92.3245 11.0152 92.193 11.0152C92.0479 11.0152 91.9013 11.044 91.7534 11.1015C91.6083 11.159 91.485 11.2508 91.3837 11.3768C91.2851 11.5 91.2358 11.6616 91.2358 11.8615V14.7002H90.4799Z" fill="white"/>
<path d="M37.4096 30.4054C36.7523 30.4054 36.1738 30.2783 35.6743 30.0242C35.1747 29.7613 34.7891 29.3932 34.5174 28.9199C34.2458 28.4467 34.1099 27.9033 34.1099 27.2898V24.1085C34.1099 23.4862 34.2458 22.9429 34.5174 22.4784C34.7891 22.0051 35.1747 21.6414 35.6743 21.3873C36.1738 21.1244 36.7523 20.9929 37.4096 20.9929C38.0581 20.9929 38.6278 21.12 39.1185 21.3741C39.6181 21.6283 40.0037 21.9745 40.2754 22.4127C40.5471 22.8509 40.6829 23.346 40.6829 23.8982V24.0033C40.6829 24.0471 40.6654 24.0866 40.6303 24.1216C40.604 24.1479 40.569 24.1611 40.5252 24.1611H39.3289C39.2851 24.1611 39.2456 24.1479 39.2106 24.1216C39.1843 24.0866 39.1711 24.0471 39.1711 24.0033V23.9376C39.1711 23.4643 39.009 23.0743 38.6847 22.7676C38.3692 22.4609 37.9442 22.3075 37.4096 22.3075C36.875 22.3075 36.4455 22.4696 36.1213 22.7939C35.797 23.1094 35.6349 23.5301 35.6349 24.0559V27.3424C35.6349 27.8682 35.8058 28.2933 36.1476 28.6176C36.4893 28.9331 36.9319 29.0908 37.4753 29.0908C38.0011 29.0908 38.413 28.955 38.711 28.6833C39.0178 28.4028 39.1711 28.0216 39.1711 27.5396V26.7245C39.1711 26.6807 39.1492 26.6588 39.1054 26.6588H37.4884C37.4446 26.6588 37.4052 26.6457 37.3701 26.6194C37.3438 26.5843 37.3307 26.5449 37.3307 26.5011V25.5283C37.3307 25.4844 37.3438 25.4494 37.3701 25.4231C37.4052 25.388 37.4446 25.3705 37.4884 25.3705H40.5252C40.569 25.3705 40.604 25.388 40.6303 25.4231C40.6654 25.4494 40.6829 25.4844 40.6829 25.5283V27.2109C40.6829 28.2188 40.3849 29.0032 39.789 29.5641C39.2018 30.125 38.4087 30.4054 37.4096 30.4054ZM45.0908 30.4054C44.3985 30.4054 43.8025 30.2301 43.303 29.8796C42.8122 29.529 42.466 29.0426 42.2644 28.4204C42.1154 27.9471 42.041 27.4476 42.041 26.9217C42.041 26.3608 42.1111 25.8613 42.2513 25.4231C42.4529 24.8096 42.8034 24.332 43.303 23.9902C43.8025 23.6484 44.4029 23.4775 45.104 23.4775C45.77 23.4775 46.3441 23.6484 46.8261 23.9902C47.3169 24.332 47.6631 24.8052 47.8646 25.4099C48.0224 25.8306 48.1013 26.3302 48.1013 26.9086C48.1013 27.4607 48.0268 27.9603 47.8778 28.4072C47.6762 29.0295 47.33 29.5203 46.8392 29.8796C46.3485 30.2301 45.7657 30.4054 45.0908 30.4054ZM45.0908 29.0908C45.4151 29.0908 45.6912 28.9988 45.919 28.8148C46.1556 28.6307 46.3265 28.3722 46.4317 28.0391C46.5194 27.7499 46.5632 27.3818 46.5632 26.9349C46.5632 26.4616 46.5194 26.0935 46.4317 25.8306C46.3353 25.4976 46.1688 25.2434 45.9322 25.0681C45.6955 24.8841 45.4063 24.7921 45.0645 24.7921C44.7403 24.7921 44.4598 24.8841 44.2232 25.0681C43.9866 25.2434 43.8157 25.4976 43.7105 25.8306C43.6229 26.1374 43.579 26.5054 43.579 26.9349C43.579 27.3643 43.6229 27.7324 43.7105 28.0391C43.8069 28.3722 43.9734 28.6307 44.21 28.8148C44.4554 28.9988 44.749 29.0908 45.0908 29.0908ZM52.3956 30.4054C51.7032 30.4054 51.1073 30.2301 50.6077 29.8796C50.1169 29.529 49.7708 29.0426 49.5692 28.4204C49.4202 27.9471 49.3457 27.4476 49.3457 26.9217C49.3457 26.3608 49.4158 25.8613 49.556 25.4231C49.7576 24.8096 50.1082 24.332 50.6077 23.9902C51.1073 23.6484 51.7076 23.4775 52.4087 23.4775C53.0748 23.4775 53.6488 23.6484 54.1308 23.9902C54.6216 24.332 54.9678 24.8052 55.1694 25.4099C55.3271 25.8306 55.406 26.3302 55.406 26.9086C55.406 27.4607 55.3315 27.9603 55.1825 28.4072C54.9809 29.0295 54.6348 29.5203 54.144 29.8796C53.6532 30.2301 53.0704 30.4054 52.3956 30.4054ZM52.3956 29.0908C52.7198 29.0908 52.9959 28.9988 53.2238 28.8148C53.4604 28.6307 53.6313 28.3722 53.7365 28.0391C53.8241 27.7499 53.8679 27.3818 53.8679 26.9349C53.8679 26.4616 53.8241 26.0935 53.7365 25.8306C53.6401 25.4976 53.4735 25.2434 53.2369 25.0681C53.0003 24.8841 52.7111 24.7921 52.3693 24.7921C52.045 24.7921 51.7646 24.8841 51.5279 25.0681C51.2913 25.2434 51.1204 25.4976 51.0152 25.8306C50.9276 26.1374 50.8838 26.5054 50.8838 26.9349C50.8838 27.3643 50.9276 27.7324 51.0152 28.0391C51.1116 28.3722 51.2782 28.6307 51.5148 28.8148C51.7602 28.9988 52.0538 29.0908 52.3956 29.0908ZM60.9623 23.7404C60.9623 23.6966 60.9755 23.6615 61.0018 23.6352C61.0368 23.6002 61.0763 23.5827 61.1201 23.5827H62.3295C62.3733 23.5827 62.4084 23.6002 62.4347 23.6352C62.4697 23.6615 62.4873 23.6966 62.4873 23.7404V29.8533C62.4873 30.9488 62.1718 31.7288 61.5408 32.1933C60.9185 32.6665 60.0991 32.9032 59.0825 32.9032C58.8108 32.9032 58.5435 32.89 58.2806 32.8637C58.1842 32.8549 58.1359 32.798 58.1359 32.6928L58.1754 31.6148C58.1754 31.5184 58.2367 31.4702 58.3594 31.4702C58.6136 31.4965 58.8415 31.5097 59.043 31.5097C59.7003 31.5097 60.1823 31.3782 60.4891 31.1153C60.8046 30.8611 60.9623 30.4273 60.9623 29.8138V29.7087C60.9623 29.6824 60.9536 29.6692 60.936 29.6692C60.9185 29.6605 60.901 29.6649 60.8835 29.6824C60.5241 30.068 60.0158 30.2608 59.3585 30.2608C58.7889 30.2608 58.2674 30.1162 57.7942 29.827C57.3209 29.5378 56.9922 29.0952 56.8082 28.4992C56.6943 28.0873 56.6373 27.5571 56.6373 26.9086C56.6373 26.1812 56.7074 25.6247 56.8476 25.239C57.0229 24.7044 57.3253 24.2794 57.7547 23.9639C58.1842 23.6396 58.6881 23.4775 59.2665 23.4775C59.9589 23.4775 60.4978 23.6791 60.8835 24.0822C60.901 24.1085 60.9185 24.1173 60.936 24.1085C60.9536 24.0997 60.9623 24.0822 60.9623 24.0559V23.7404ZM60.8703 28.0654C60.9054 27.934 60.9273 27.7937 60.936 27.6448C60.9536 27.487 60.9623 27.2372 60.9623 26.8954C60.9623 26.5624 60.9536 26.3258 60.936 26.1856C60.9273 26.0366 60.901 25.892 60.8572 25.7517C60.7871 25.4625 60.6425 25.2303 60.4234 25.055C60.213 24.8797 59.9413 24.7921 59.6083 24.7921C59.2928 24.7921 59.0255 24.8797 58.8064 25.055C58.5873 25.2303 58.4295 25.4625 58.3331 25.7517C58.228 25.9971 58.1754 26.3827 58.1754 26.9086C58.1754 27.452 58.2192 27.8332 58.3068 28.0523C58.3945 28.3327 58.5522 28.565 58.7801 28.749C59.0167 28.9243 59.2972 29.0119 59.6214 29.0119C59.9632 29.0119 60.2393 28.9243 60.4496 28.749C60.66 28.5737 60.8002 28.3459 60.8703 28.0654ZM64.2203 30.3002C64.1765 30.3002 64.137 30.2871 64.102 30.2608C64.0757 30.2258 64.0625 30.1863 64.0625 30.1425V21.2558C64.0625 21.212 64.0757 21.1769 64.102 21.1506C64.137 21.1156 64.1765 21.0981 64.2203 21.0981H65.4297C65.4735 21.0981 65.5086 21.1156 65.5349 21.1506C65.5699 21.1769 65.5875 21.212 65.5875 21.2558V30.1425C65.5875 30.1863 65.5699 30.2258 65.5349 30.2608C65.5086 30.2871 65.4735 30.3002 65.4297 30.3002H64.2203ZM72.8737 26.1856C72.9088 26.4047 72.9263 26.65 72.9263 26.9217L72.9132 27.3293C72.9132 27.4344 72.8606 27.487 72.7554 27.487H68.6407C68.5969 27.487 68.575 27.5089 68.575 27.5527C68.6013 27.8419 68.6407 28.0391 68.6933 28.1443C68.9036 28.7753 69.4163 29.0952 70.2314 29.104C70.8273 29.104 71.3006 28.8586 71.6511 28.3678C71.6862 28.3152 71.73 28.2889 71.7826 28.2889C71.8177 28.2889 71.8483 28.3021 71.8746 28.3283L72.6897 28.9988C72.7686 29.0601 72.7817 29.1303 72.7291 29.2091C72.4574 29.5947 72.0937 29.8927 71.638 30.1031C71.191 30.3134 70.6915 30.4186 70.1394 30.4186C69.4558 30.4186 68.873 30.2652 68.3909 29.9585C67.9177 29.6517 67.5715 29.2223 67.3524 28.6701C67.1508 28.1969 67.0501 27.5396 67.0501 26.6982C67.0501 26.1899 67.1026 25.778 67.2078 25.4625C67.3831 24.849 67.7117 24.367 68.1938 24.0165C68.6845 23.6571 69.2717 23.4775 69.9553 23.4775C71.6818 23.4775 72.6546 24.3802 72.8737 26.1856ZM69.9553 24.7921C69.631 24.7921 69.3594 24.8753 69.1403 25.0419C68.9299 25.1996 68.7809 25.4231 68.6933 25.7123C68.6407 25.8613 68.6057 26.0541 68.5881 26.2907C68.5706 26.3345 68.5881 26.3565 68.6407 26.3565H71.3094C71.3532 26.3565 71.3751 26.3345 71.3751 26.2907C71.3576 26.0716 71.3313 25.9051 71.2962 25.7912C71.2173 25.4757 71.0596 25.2303 70.8229 25.055C70.5951 24.8797 70.3059 24.7921 69.9553 24.7921ZM80.7904 21.0849C81.3425 21.0849 81.8289 21.1988 82.2496 21.4267C82.6703 21.6546 82.9945 21.9788 83.2224 22.3995C83.459 22.8114 83.5773 23.2891 83.5773 23.8324C83.5773 24.367 83.459 24.8403 83.2224 25.2522C82.9858 25.6641 82.6483 25.984 82.2101 26.2118C81.7807 26.4309 81.2812 26.5405 80.7115 26.5405H78.6081C78.5643 26.5405 78.5424 26.5624 78.5424 26.6062V30.1425C78.5424 30.1863 78.5249 30.2258 78.4898 30.2608C78.4635 30.2871 78.4285 30.3002 78.3847 30.3002H77.1752C77.1314 30.3002 77.092 30.2871 77.0569 30.2608C77.0306 30.2258 77.0175 30.1863 77.0175 30.1425V21.2427C77.0175 21.1988 77.0306 21.1638 77.0569 21.1375C77.092 21.1024 77.1314 21.0849 77.1752 21.0849H80.7904ZM80.5669 25.3048C81.0139 25.3048 81.3732 25.1733 81.6449 24.9104C81.9165 24.6475 82.0524 24.3013 82.0524 23.8719C82.0524 23.4337 81.9165 23.0787 81.6449 22.807C81.3732 22.5354 81.0139 22.3995 80.5669 22.3995H78.6081C78.5643 22.3995 78.5424 22.4214 78.5424 22.4652V25.239C78.5424 25.2829 78.5643 25.3048 78.6081 25.3048H80.5669ZM84.9278 30.3002C84.8839 30.3002 84.8445 30.2871 84.8095 30.2608C84.7832 30.2258 84.77 30.1863 84.77 30.1425V21.2558C84.77 21.212 84.7832 21.1769 84.8095 21.1506C84.8445 21.1156 84.8839 21.0981 84.9278 21.0981H86.1372C86.181 21.0981 86.2161 21.1156 86.2424 21.1506C86.2774 21.1769 86.2949 21.212 86.2949 21.2558V30.1425C86.2949 30.1863 86.2774 30.2258 86.2424 30.2608C86.2161 30.2871 86.181 30.3002 86.1372 30.3002H84.9278ZM90.4788 23.4775C91.0309 23.4775 91.5173 23.5739 91.938 23.7667C92.3586 23.9595 92.6829 24.2268 92.9108 24.5686C93.1386 24.9016 93.2526 25.2829 93.2526 25.7123V30.1425C93.2526 30.1863 93.235 30.2258 93.2 30.2608C93.1737 30.2871 93.1386 30.3002 93.0948 30.3002H91.8854C91.8416 30.3002 91.8021 30.2871 91.7671 30.2608C91.7408 30.2258 91.7276 30.1863 91.7276 30.1425V29.7218C91.7276 29.6955 91.7189 29.6824 91.7013 29.6824C91.6838 29.6736 91.6663 29.678 91.6488 29.6955C91.2193 30.1688 90.5971 30.4054 89.782 30.4054C89.1247 30.4054 88.5814 30.2389 88.1519 29.9059C87.7312 29.5728 87.5209 29.0777 87.5209 28.4204C87.5209 27.7368 87.7575 27.2066 88.2308 26.8297C88.7128 26.4441 89.3876 26.2513 90.2553 26.2513H91.6619C91.7057 26.2513 91.7276 26.2294 91.7276 26.1856V25.8701C91.7276 25.5283 91.6268 25.2653 91.4253 25.0813C91.2237 24.8885 90.9213 24.7921 90.5182 24.7921C90.1852 24.7921 89.9135 24.8534 89.7031 24.9761C89.5016 25.0901 89.3745 25.2522 89.3219 25.4625C89.2956 25.5677 89.2343 25.6115 89.1379 25.594L87.8627 25.4362C87.8189 25.4275 87.7795 25.4143 87.7444 25.3968C87.7181 25.3705 87.7093 25.3398 87.7181 25.3048C87.7882 24.7702 88.073 24.332 88.5726 23.9902C89.0809 23.6484 89.7163 23.4775 90.4788 23.4775ZM90.1633 29.196C90.5927 29.196 90.9608 29.0821 91.2675 28.8542C91.5743 28.6263 91.7276 28.3371 91.7276 27.9866V27.3687C91.7276 27.3249 91.7057 27.303 91.6619 27.303H90.5576C90.0931 27.303 89.7251 27.3906 89.4534 27.5659C89.1905 27.7412 89.059 27.9909 89.059 28.3152C89.059 28.5957 89.1598 28.8148 89.3614 28.9725C89.5717 29.1215 89.839 29.196 90.1633 29.196ZM94.5109 32.9163C94.4846 32.9163 94.4627 32.8988 94.4452 32.8637C94.4276 32.8374 94.4189 32.8024 94.4189 32.7585V31.812C94.4189 31.7682 94.432 31.7288 94.4583 31.6937C94.4934 31.6674 94.5328 31.6543 94.5766 31.6543H94.5898C94.9491 31.6455 95.2295 31.6061 95.4311 31.536C95.6327 31.4746 95.7992 31.3519 95.9306 31.1679C96.0621 30.9838 96.1804 30.7078 96.2856 30.3397C96.2944 30.3222 96.2944 30.2959 96.2856 30.2608L94.1165 23.7535C94.1077 23.736 94.1034 23.7141 94.1034 23.6878C94.1034 23.6089 94.1472 23.5695 94.2348 23.5695H95.5231C95.6195 23.5695 95.6809 23.6133 95.7072 23.701L97.0218 28.3283C97.0305 28.3546 97.0437 28.3678 97.0612 28.3678C97.0787 28.3678 97.0919 28.3546 97.1006 28.3283L98.4152 23.701C98.4415 23.6133 98.5029 23.5695 98.5993 23.5695H99.8481C99.9007 23.5695 99.9358 23.587 99.9533 23.6221C99.9796 23.6484 99.984 23.6922 99.9665 23.7535L97.6528 30.6683C97.4337 31.2906 97.219 31.7551 97.0086 32.0618C96.7983 32.3685 96.5091 32.5876 96.141 32.7191C95.7817 32.8506 95.269 32.9163 94.6029 32.9163H94.5109Z" fill="white"/>
<defs>
<linearGradient id="paint0_linear_326_313" x1="54.4921" y1="0.127241" x2="54.4921" y2="39.8732" gradientUnits="userSpaceOnUse">
<stop stop-color="#161C24"/>
<stop offset="1"/>
</linearGradient>
<linearGradient id="paint1_linear_326_313" x1="18.7054" y1="12.7832" x2="6.0273" y2="16.1613" gradientUnits="userSpaceOnUse">
<stop stop-color="#00A0FF"/>
<stop offset="0.007" stop-color="#00A1FF"/>
<stop offset="0.26" stop-color="#00BEFF"/>
<stop offset="0.512" stop-color="#00D2FF"/>
<stop offset="0.76" stop-color="#00DFFF"/>
<stop offset="1" stop-color="#00E3FF"/>
</linearGradient>
<linearGradient id="paint2_linear_326_313" x1="26.3941" y1="19.9981" x2="10.9358" y2="19.9981" gradientUnits="userSpaceOnUse">
<stop stop-color="#FFE000"/>
<stop offset="0.409" stop-color="#FFBD00"/>
<stop offset="0.775" stop-color="#FFA500"/>
<stop offset="1" stop-color="#FF9C00"/>
</linearGradient>
<linearGradient id="paint3_linear_326_313" x1="20.6395" y1="21.4654" x2="10.4615" y2="38.5957" gradientUnits="userSpaceOnUse">
<stop stop-color="#FF3A44"/>
<stop offset="1" stop-color="#C31162"/>
</linearGradient>
<linearGradient id="paint4_linear_326_313" x1="9.43926" y1="7.3349" x2="13.98" y2="14.9856" gradientUnits="userSpaceOnUse">
<stop stop-color="#2054D5"/>
<stop offset="0.069" stop-color="#2DA771"/>
<stop offset="0.476" stop-color="#15CF74"/>
<stop offset="0.801" stop-color="#06E775"/>
<stop offset="1" stop-color="#00F076"/>
</linearGradient>
</defs>
</svg>
