<svg width="61" height="60" viewBox="0 0 61 60" fill="none" xmlns="http://www.w3.org/2000/svg">
<circle opacity="0.1" cx="30.6738" cy="30" r="30" fill="#912210"/>
<path d="M44.625 35.0488C47.4187 32.3113 50.25 29.0301 50.25 24.7363C50.25 22.0013 49.1635 19.3783 47.2295 17.4443C45.2956 15.5103 42.6725 14.4238 39.9375 14.4238C36.6375 14.4238 34.3125 15.3613 31.5 18.1738C28.6875 15.3613 26.3625 14.4238 23.0625 14.4238C20.3275 14.4238 17.7044 15.5103 15.7705 17.4443C13.8365 19.3783 12.75 22.0013 12.75 24.7363C12.75 29.0488 15.5625 32.3301 18.375 35.0488L31.5 48.1738L44.625 35.0488Z" stroke="#912210" stroke-width="2.5" stroke-linecap="round" stroke-linejoin="round"/>
<path d="M31.5003 18.1738L25.9503 23.7238C25.5693 24.102 25.2669 24.5519 25.0606 25.0474C24.8543 25.543 24.748 26.0745 24.748 26.6113C24.748 27.1481 24.8543 27.6796 25.0606 28.1752C25.2669 28.6708 25.5693 29.1206 25.9503 29.4988C27.4878 31.0363 29.944 31.0926 31.5753 29.6301L35.4565 26.0676C36.4294 25.1848 37.696 24.6958 39.0096 24.6958C40.3233 24.6958 41.5899 25.1848 42.5628 26.0676L48.1128 31.0551M42.7503 36.9238L39.0003 33.1738M37.1253 42.5488L33.3753 38.7988" stroke="#912210" stroke-width="2.5" stroke-linecap="round" stroke-linejoin="round"/>
</svg>
