<svg width="24" height="24" viewBox="0 0 24 24" fill="none" xmlns="http://www.w3.org/2000/svg">
<path d="M22.5 19.5H21.75V8.25C21.75 8.05109 21.671 7.86032 21.5303 7.71967C21.3897 7.57902 21.1989 7.5 21 7.5H15C14.8011 7.5 14.6103 7.57902 14.4697 7.71967C14.329 7.86032 14.25 8.05109 14.25 8.25V12H9.75V3.75C9.75 3.55109 9.67098 3.36032 9.53033 3.21967C9.38968 3.07902 9.19891 3 9 3H3C2.80109 3 2.61032 3.07902 2.46967 3.21967C2.32902 3.36032 2.25 3.55109 2.25 3.75V19.5H1.5C1.30109 19.5 1.11032 19.579 0.96967 19.7197C0.829018 19.8603 0.75 20.0511 0.75 20.25C0.75 20.4489 0.829018 20.6397 0.96967 20.7803C1.11032 20.921 1.30109 21 1.5 21H22.5C22.6989 21 22.8897 20.921 23.0303 20.7803C23.171 20.6397 23.25 20.4489 23.25 20.25C23.25 20.0511 23.171 19.8603 23.0303 19.7197C22.8897 19.579 22.6989 19.5 22.5 19.5ZM6.75 17.25C6.75 17.4489 6.67098 17.6397 6.53033 17.7803C6.38968 17.921 6.19891 18 6 18C5.80109 18 5.61032 17.921 5.46967 17.7803C5.32902 17.6397 5.25 17.4489 5.25 17.25V15.75C5.25 15.5511 5.32902 15.3603 5.46967 15.2197C5.61032 15.079 5.80109 15 6 15C6.19891 15 6.38968 15.079 6.53033 15.2197C6.67098 15.3603 6.75 15.5511 6.75 15.75V17.25ZM6.75 12.75C6.75 12.9489 6.67098 13.1397 6.53033 13.2803C6.38968 13.421 6.19891 13.5 6 13.5C5.80109 13.5 5.61032 13.421 5.46967 13.2803C5.32902 13.1397 5.25 12.9489 5.25 12.75V11.25C5.25 11.0511 5.32902 10.8603 5.46967 10.7197C5.61032 10.579 5.80109 10.5 6 10.5C6.19891 10.5 6.38968 10.579 6.53033 10.7197C6.67098 10.8603 6.75 11.0511 6.75 11.25V12.75ZM6.75 8.25C6.75 8.44891 6.67098 8.63968 6.53033 8.78033C6.38968 8.92098 6.19891 9 6 9C5.80109 9 5.61032 8.92098 5.46967 8.78033C5.32902 8.63968 5.25 8.44891 5.25 8.25V6.75C5.25 6.55109 5.32902 6.36032 5.46967 6.21967C5.61032 6.07902 5.80109 6 6 6C6.19891 6 6.38968 6.07902 6.53033 6.21967C6.67098 6.36032 6.75 6.55109 6.75 6.75V8.25ZM12.75 17.25C12.75 17.4489 12.671 17.6397 12.5303 17.7803C12.3897 17.921 12.1989 18 12 18C11.8011 18 11.6103 17.921 11.4697 17.7803C11.329 17.6397 11.25 17.4489 11.25 17.25V15.75C11.25 15.5511 11.329 15.3603 11.4697 15.2197C11.6103 15.079 11.8011 15 12 15C12.1989 15 12.3897 15.079 12.5303 15.2197C12.671 15.3603 12.75 15.5511 12.75 15.75V17.25ZM18.75 17.25C18.75 17.4489 18.671 17.6397 18.5303 17.7803C18.3897 17.921 18.1989 18 18 18C17.8011 18 17.6103 17.921 17.4697 17.7803C17.329 17.6397 17.25 17.4489 17.25 17.25V15.75C17.25 15.5511 17.329 15.3603 17.4697 15.2197C17.6103 15.079 17.8011 15 18 15C18.1989 15 18.3897 15.079 18.5303 15.2197C18.671 15.3603 18.75 15.5511 18.75 15.75V17.25ZM18.75 12.75C18.75 12.9489 18.671 13.1397 18.5303 13.2803C18.3897 13.421 18.1989 13.5 18 13.5C17.8011 13.5 17.6103 13.421 17.4697 13.2803C17.329 13.1397 17.25 12.9489 17.25 12.75V11.25C17.25 11.0511 17.329 10.8603 17.4697 10.7197C17.6103 10.579 17.8011 10.5 18 10.5C18.1989 10.5 18.3897 10.579 18.5303 10.7197C18.671 10.8603 18.75 11.0511 18.75 11.25V12.75Z" fill="#2054D5"/>
</svg>
