<svg id="Layer_1" data-name="Layer 1" xmlns="http://www.w3.org/2000/svg" viewBox="0 0 950 950"><defs><style>.cls-1,.cls-2{fill:#ed1c24;}.cls-1,.cls-3{fill-rule:evenodd;}.cls-3{fill:#fff;}</style></defs><path class="cls-1" d="M184.18,802.79c3,0,4.47.15,5.49-2.25,1.22-2.88,10.93-32.07,10.93-32.07h22.14c9.62,0,22.88-.17,22.88-.17s1.69,3,5.62,15.54,5.12,19.23,11,19.23H282.6c2.84,0,3.69-1.13,3.69-3.35s-2.22-7.41-2.22-7.41-9.51-27.65-11.66-34-9.6-27.64-14.1-40.1-11.95-35.45-13.2-39.38-1.38-5.75-5.7-6.21-15.2-1.18-20.82-.73c-.86.07-2.62.16-3.48,3s-9.28,28.57-12.86,39.21-14.1,41.36-15.47,45.52-10.69,32.08-12.23,36.87-1.75,6.15,1.31,6.15S181.15,802.79,184.18,802.79Zm38.61-103.25s2.9,7.25,10.06,29.51,8,25.46,8,25.46-6.46.07-17.53.07-18.38-.3-18.38-.3,1.67-5.65,8.61-27S222.79,699.54,222.79,699.54Z"/><path class="cls-1" d="M505.43,802.79c3,0,4.48.15,5.49-2.25,1.22-2.88,10.93-32.07,10.93-32.07H544c9.61,0,22.87-.17,22.87-.17s1.69,3,5.62,15.54,5.12,19.23,11,19.23h20.37c2.84,0,3.69-1.13,3.69-3.35s-2.22-7.41-2.22-7.41-9.51-27.65-11.66-34-9.6-27.64-14.1-40.1-11.95-35.45-13.21-39.38-1.37-5.75-5.69-6.21-15.2-1.18-20.82-.73c-.86.07-2.62.16-3.48,3s-9.28,28.57-12.86,39.21S509.4,755.44,508,759.6s-10.69,32.08-12.23,36.87-1.75,6.15,1.31,6.15S502.41,802.79,505.43,802.79ZM544,699.54s2.9,7.25,10.06,29.51,8,25.46,8,25.46-6.46.07-17.53.07-18.37-.3-18.37-.3,1.66-5.65,8.61-27S544,699.54,544,699.54Z"/><path class="cls-1" d="M307.7,679.84c0-5.43,1.38-7.69,6.27-7.69s9.8.1,13.31.1,9.84-.15,9.84,3.53.53,50,.53,59.46.32,53.25.32,59.25-.65,8.68-5.33,8.68-11.72.32-16.46.27-7.85-.58-7.85-7.26-.26-65.68-.26-76.15S307.7,685.27,307.7,679.84Z"/><path class="cls-1" d="M424.05,742.1c-6.07,0-20.07.08-20.07.08.07,15.65.28,47.27.28,52.31,0,6-.62,8.68-5.08,8.68s-11.19.31-15.72.26-7.49-.58-7.49-7.26-.25-65.67-.25-76.14-.35-34.76-.35-40.19,1.32-7.69,6-7.69,9.36.1,12.71.1,9.4-.15,9.4,3.53c0,3.08.34,35.71.55,52,0,0,6.54.19,20.2.19s22.79-.19,22.79-.19c0-16.29.37-48.92.37-52,0-3.68,6-3.53,9.39-3.53s8.05-.1,12.71-.1,6,2.26,6,7.69-.35,29.72-.35,40.19-.25,69.47-.25,76.14-3,7.21-7.5,7.26-11.25-.26-15.71-.26-5.08-2.68-5.08-8.68c0-5,.21-36.66.28-52.31C446.85,742.18,430.13,742.1,424.05,742.1Z"/><path class="cls-1" d="M634.73,798.07c.23,4.08,0,4.92,1.95,5.34a136.2,136.2,0,0,0,14.49,1.39c5.21.23,12.08,1.26,12.08-6.18s-.14-32.61-.14-35-.19-28-.19-30.19V689.78c0-1.25.38-1.62,1.82-1.62s15.84.32,21.27.32h9c1.39,0,2.88.37,3.16-1.76s.6-6.55.65-8.74,0-3.76-3.77-4-28.7-.7-34-.79-26-.09-29.87-.05-28.94.42-30.85.42-2.79,2.19-2.79,6.83.38,7.53,2.88,7.53,22,0,27.18.13c2.65.05,3.72,0,4.5,0s1.77-.06,1.77.7.42,19.14.42,26.16-.23,25.73-.23,33.21.41,32.1.41,35.21S634.5,794,634.73,798.07Z"/><path class="cls-1" d="M741.09,806.28c-12.23,0-28.52-4.47-31.78-5.5s-3.3-3.2-3.3-4.87v-5.29c0-2.65.3-5.7,1.91-5.7,5.25,0,11,8.29,35.4,8.29,13.9,0,16-8,16-13.1,0-27.92-54.39-33.67-54.39-73,0-28.87,21.51-34.06,38.74-34.06,13.9,0,24.24,3.28,27.78,5s4,2.89,4,4.81v9.65c0,1.37-.77,2.36-1.89,2.36-3.62,0-8.92-8.91-28.43-8.91-12.91,0-18.39,6.41-18.39,13.93,0,22.39,56.21,32.33,56.21,71.54C783,799.07,759.5,806.28,741.09,806.28Z"/><path class="cls-1" d="M804.61,679.61c0-2.55.46-4.41,4.27-4.41s6.46-.33,9.85-.33,6.27,0,9,.09,5.39.47,5.39,10.78-.25,37.06-.25,42,.06,21.35.06,28.61c0,13.26-2.22,38,24.94,38,5.13,0,24.78,0,24.78-26.26,0-10.25-.45-49-.57-64.85,0-8.43-.35-21.38-.35-24s.52-3.73,2.32-3.73,6.27.13,9.19.13,4.69,0,4.69,2,.55,15.46.55,52.27v39.13c0,8.12.81,38-39.41,38s-53.94-21.35-53.94-43S804.61,682.16,804.61,679.61Z"/><path class="cls-1" d="M51.75,740.14c0,22.11.5,54,.5,57.1s.11,4.56,7.65,5,36.84.11,45.55.11c35.68,0,53.83-25.59,53.83-62.43,0-60.95-33.95-68.6-58.2-68.6H57.41c-3.71,0-5.85.18-5.85,4.27S51.75,718,51.75,740.14Zm45.12,48.75c16.23,0,33.22-2.65,33.22-52.67s-18.88-50.4-34.73-50.4H85.15c-1.7,0-4.51-.26-4.51,3v99.64S89.5,788.89,96.87,788.89Z"/><rect class="cls-2" x="51.56" y="106.95" width="846.88" height="502.91"/><path class="cls-3" d="M454.67,401.61,352.33,412,169.28,229s119.57-7.39,337.07,12.24,337.91,52.95,337.91,88c0,93.09-588.72,184.19-588.72,184.19l52.67-82.27L106.37,231.23,154.2,229l193.29,193.3S821.78,380.4,821.78,330.3c0-30.17-211.81-56.66-315.43-65.19C413.53,257.46,311.06,258,311.06,258Z"/></svg>