<svg id="Layer_1" data-name="Layer 1" xmlns="http://www.w3.org/2000/svg" viewBox="0 0 960 450.58"><defs><style>.cls-1{fill:#ee1b24;}</style></defs><path class="cls-1" d="M19.76,302.2c1.39-3.7,2.95-7.35,4.15-11.11q21.51-67.5,43-135c1.33-4.15,1.18-7.6-1-11.34-1.91-3.25-3.24-6.84-5-10.62,1.24-.12,2-.27,2.81-.27,29,.08,58,0,86.93.32,14.79.15,29.2,2.61,42.21,10.24,12.81,7.52,19.12,19.09,19.88,33.73,1.16,22.66-6.48,43.22-15.81,63.23C180.57,276.5,153.1,297.18,114.5,301c-21.29,2.08-42.86,1.4-64.3,1.88-10.14.23-20.29.25-30.44.36Zm71.35-19.08c3,0,6,.05,9,0,16.49-.33,30.69-6,41.07-19.1a119.75,119.75,0,0,0,13.68-21.33c8.73-17.78,16.56-36,17.86-56.17C174,167,164,155.43,144.53,154.08c-9.76-.68-19.59-.29-29.37-.8-4-.21-5.4,1.54-6.47,5q-15.28,49.28-30.8,98.5c-1.69,5.39-3.53,10.74-5,16.19-1.86,6.8.77,10.12,7.75,10.16C84.12,283.15,87.62,283.13,91.11,283.12Z"/><path class="cls-1" d="M939.76,181.2c-.39,2.41-.77,4.83-1.16,7.24-4.71,29-14.29,56.05-32.42,79.5-17.21,22.24-40.69,33.42-68.16,36a212.11,212.11,0,0,1-39.28.08c-30.22-2.83-45.36-19.85-43-49.92,2.67-35,14.57-66.8,38.53-93.19,16.9-18.61,38.64-27.65,63.24-30.58,1.78-.22,3.53-.74,5.3-1.11h22c5.54,1,11.13,1.79,16.62,3,15.23,3.43,28.33,10.05,34.39,25.61,2,5.19,2.7,10.9,4,16.37Zm-41.91,1.56c.08-23.85-9.66-33.6-29.09-33.56-20.18,0-34.22,10.21-44.38,26.76-11.25,18.32-18.43,38.32-24.06,58.95-2.64,9.7-4.11,19.54-2.79,29.63,1.51,11.5,8.25,19.18,19.17,20.63,19.54,2.59,36.16-2.87,48.61-18.91,11.1-14.29,17.42-30.94,23.59-47.64C893.69,205.65,897.74,192.46,897.85,182.76Z"/><path class="cls-1" d="M423.12,133.87h12.09c12.33,0,24.67.15,37-.09,4.09-.08,6.05,1.1,7.55,5.14,13.18,35.57,26.65,71,40,106.54.56,1.49,1.23,2.94,2.42,5.77,2.06-6.34,3.72-11.3,5.28-16.29q15.18-48.58,30.23-97.21c.91-3,2.2-4,5.19-3.91,8.14.15,16.28.05,25,.05-3.3,10.47-6.39,20.43-9.58,30.36-14.25,44.34-28.59,88.65-42.67,133-1.41,4.44-3.2,6-7.91,5.7-8.31-.48-16.66-.31-25,0-3.56.12-5.24-1-6.52-4.36q-21.16-56.31-42.63-112.51c-.64-1.68-1.45-3.3-2.51-5.71a26.36,26.36,0,0,0-1.72,3.4q-17.62,56.72-35.1,113.49c-1.32,4.34-3.07,6.13-7.88,5.81-7.62-.51-15.3-.14-23.79-.14,2.27-7.35,4.35-14.26,6.54-21.13q20.13-63.27,40.38-126.49a11.1,11.1,0,0,0-.77-9.45C426.82,142.26,425.25,138.43,423.12,133.87Z"/><path class="cls-1" d="M747.89,137.1l-8.64,26.42c-10.42-3.7-20.46-7.63-30.72-10.81-9.15-2.84-18.7-3.82-28.12-1.61a36.26,36.26,0,0,0-13.12,5.59c-12.87,9.55-12.93,22.87,0,32.25,6.13,4.44,13.38,7.29,20,11,8.79,5,18.36,9.05,26,15.4,14.77,12.26,17.08,27.55,9,44.92-9.94,21.36-27.18,33.78-49.33,39.48-31.36,8.07-62.75,5.11-94-1.38a12.79,12.79,0,0,1-2-.89c3.61-10.07,7.18-20.05,10.55-29.46,11,4.73,21.44,10,32.37,13.67,14.18,4.76,28.71,5.72,42.83-1a32.64,32.64,0,0,0,15.2-14.64c4.2-8,3.25-16.74-4.08-22.56S657.8,233,649.55,228.12c-6.28-3.73-13.1-6.61-19.17-10.63-18.06-12-22.39-28.61-13.1-48.2,8.57-18,23.9-27.66,42.13-33.39,29.08-9.14,58.19-6.44,87.25.4C747,136.37,747.21,136.65,747.89,137.1Z"/><path class="cls-1" d="M398.51,134.28c-1.82,5.81-3.37,11.41-5.43,16.82-.42,1.12-2.72,2.17-4.17,2.18-23.45.1-46.91.16-70.37-.1-4.34-.05-6.43,1-7.71,5.38-4.46,15.31-9.39,30.47-14.36,46.38h55.76c-2.07,6.71-3.75,12.68-5.88,18.48-.33.9-2.73,1.46-4.17,1.47-15,.1-30,.3-45-.08-5.37-.14-7.74,1.3-9.21,6.72-3.71,13.64-8.28,27-12.47,40.54-2.43,7.81-.1,11.05,7.89,11.05l67.49,0h5.57c-1.83,6.26-3.43,12.13-5.33,17.89-.28.85-2,1.75-3,1.75q-62.22,0-124.42-.12c-.15,0-.29-.13-.91-.43,2.17-7,4.31-14.11,6.56-21.19q20.14-63.24,40.2-126.5a12.72,12.72,0,0,0-.53-7.47c-1.45-4.18-3.58-8.12-5.7-12.79Z"/></svg>