<svg width="36" height="36" viewBox="0 0 36 36" fill="none" xmlns="http://www.w3.org/2000/svg">
<path d="M0 18C0 8.05888 8.05888 0 18 0C27.9411 0 36 8.05888 36 18C36 27.9411 27.9411 36 18 36C8.05888 36 0 27.9411 0 18Z" fill="white"/>
<path d="M19.4583 19.2498H21.5417L22.375 15.9165H19.4583V14.2498C19.4583 13.392 19.4583 12.5832 21.125 12.5832H22.375V9.78325C22.1036 9.74721 21.0775 9.6665 19.9941 9.6665C17.732 9.6665 16.125 11.0472 16.125 13.5829V15.9165H13.625V19.2498H16.125V26.3332H19.4583V19.2498Z" fill="#1877F2"/>
</svg>
