<svg id="Layer_1" data-name="Layer 1" xmlns="http://www.w3.org/2000/svg" viewBox="0 0 960 376.26"><defs><style>.cls-1{fill:#e8323d;}</style></defs><path class="cls-1" d="M625.39,106.09c-36.53-.24-81,14.91-81.28,69.92-.24,54.45,45.22,71.64,81.28,70.56,33.52-1,70.52-10.31,72.21-51.31l-37.05.09c-1,25.75-21.6,30.86-35.16,30.91-13.92.05-42.24-2.88-42.69-49.7-.42-44.2,25.58-50.45,42.69-50.26s34.09,8.17,34.28,28.29l36.8,0C696.1,129.93,674.8,106.43,625.39,106.09ZM44,108.59V243.9H79.81V184.18h72.5V243.9h36V108.59h-36v54.15H79.81V108.59Zm174,0v135.3h36.07V108.59Zm49.42,0V131H320v112.9h35.68V131h52.54V108.59Zm447.74,0V243.9H751V184.18h72.49V243.9H859.3V108.59H823.48v54.15H751V108.59Zm173.16,0v135.3h36.1V108.59Zm-446.82.2-64.14,135.1h40.25l12.5-30.35,67.78,0,12.48,30.38h40.35l-63.86-135.1Zm22.56,22.85L488.86,192l-49.78,0Z"/></svg>