<svg width="20" height="20" viewBox="0 0 20 20" fill="none" xmlns="http://www.w3.org/2000/svg">
<path d="M18.6975 6.39247C18.6549 5.46106 18.507 4.82498 18.2907 4.26853C18.071 3.68465 17.7266 3.15573 17.2814 2.71868C16.8444 2.27348 16.3155 1.92897 15.7316 1.70917C15.175 1.49298 14.539 1.34519 13.6076 1.30288C12.6745 1.26015 12.3763 1.25 10.0001 1.25C7.62376 1.25 7.32561 1.26015 6.39247 1.30264C5.46106 1.34519 4.82515 1.49312 4.26853 1.70941C3.68464 1.9291 3.15571 2.27355 2.71864 2.71871C2.27344 3.15572 1.92894 3.68459 1.70914 4.26843C1.49295 4.82505 1.34516 5.4611 1.30284 6.39236C1.26015 7.32561 1.25 7.62363 1.25 9.99992C1.25 12.3763 1.26015 12.6745 1.30288 13.6076C1.34533 14.5389 1.49326 15.175 1.70955 15.7316C1.92924 16.3154 2.27367 16.8443 2.71881 17.2813C3.15584 17.7265 3.68475 18.0709 4.26863 18.2906C4.82515 18.507 5.4612 18.6548 6.3926 18.6974C7.32589 18.74 7.62387 18.75 10.0002 18.75C12.3765 18.75 12.6746 18.74 13.6078 18.6974C14.5392 18.6548 15.1751 18.507 15.7317 18.2906C16.313 18.0658 16.8409 17.7221 17.2815 17.2814C17.7222 16.8407 18.0659 16.3128 18.2907 15.7316C18.5071 15.175 18.6549 14.5389 18.6975 13.6076C18.74 12.6744 18.7501 12.3763 18.7501 10.0001C18.7501 7.62363 18.74 7.32561 18.6975 6.39247ZM17.1225 13.536C17.0836 14.3891 16.941 14.8524 16.8212 15.1607C16.6757 15.5381 16.4527 15.8808 16.1667 16.1668C15.8807 16.4528 15.5379 16.6758 15.1606 16.8214C14.8523 16.9411 14.389 17.0837 13.5358 17.1226C12.6134 17.1648 12.3366 17.1736 10.0001 17.1736C7.66345 17.1736 7.38679 17.1648 6.46418 17.1226C5.61118 17.0837 5.14791 16.9411 4.83947 16.8214C4.45943 16.681 4.11566 16.4574 3.83342 16.1668C3.54278 15.8845 3.31909 15.5408 3.17881 15.1607C3.05904 14.8524 2.91644 14.3891 2.87758 13.536C2.83554 12.6134 2.82658 12.3366 2.82658 10.0002C2.82658 7.66368 2.83554 7.38707 2.87758 6.46431C2.91654 5.61118 3.05904 5.14787 3.17881 4.83961C3.31913 4.45954 3.54281 4.11572 3.83342 3.83342C4.11566 3.54277 4.45949 3.31912 4.83961 3.17894C5.14791 3.05904 5.61118 2.91658 6.46435 2.87758C7.38693 2.83554 7.66372 2.82658 10.0001 2.82658C12.3365 2.82658 12.6131 2.83554 13.5359 2.87771C14.389 2.91658 14.8522 3.05918 15.1606 3.17894C15.5406 3.31926 15.8843 3.54289 16.1666 3.83342C16.4573 4.11565 16.6809 4.45949 16.8211 4.83961C16.941 5.14791 17.0836 5.61118 17.1225 6.46435C17.1645 7.38693 17.1735 7.66372 17.1735 10.0001C17.1735 12.3366 17.1646 12.6132 17.1225 13.536Z" fill="url(#paint0_linear_530_147)"/>
<path d="M9.99992 5.50676C7.51842 5.50676 5.50673 7.51852 5.50673 10.0001C5.50673 12.4816 7.51842 14.4932 9.99992 14.4932C12.4816 14.4932 14.4932 12.4816 14.4932 10.0001C14.4932 7.51852 12.4815 5.50676 9.99992 5.50676ZM9.99992 12.9167C8.38919 12.9166 7.08328 11.6108 7.08341 9.99992C7.08341 8.38919 8.38919 7.08328 10.0001 7.08328C11.6109 7.08341 12.9167 8.38919 12.9167 9.99992C12.9167 11.6108 11.6108 12.9167 9.99992 12.9167Z" fill="url(#paint1_linear_530_147)"/>
<path d="M15.7208 5.3293C15.7208 5.90916 15.2507 6.37924 14.6708 6.37924C14.0908 6.37924 13.6207 5.90913 13.6207 5.3293C13.6207 4.74927 14.0908 4.27919 14.6708 4.27919C15.2507 4.27919 15.7208 4.7493 15.7208 5.3293Z" fill="url(#paint2_linear_530_147)"/>
<defs>
<linearGradient id="paint0_linear_530_147" x1="2.71857" y1="17.2814" x2="17.2815" y2="2.71844" gradientUnits="userSpaceOnUse">
<stop stop-color="#FFD600"/>
<stop offset="0.5" stop-color="#FF0100"/>
<stop offset="1" stop-color="#D800B9"/>
</linearGradient>
<linearGradient id="paint1_linear_530_147" x1="3.81287" y1="16.1872" x2="16.1873" y2="3.81277" gradientUnits="userSpaceOnUse">
<stop stop-color="#FF6400"/>
<stop offset="0.5" stop-color="#FF0100"/>
<stop offset="1" stop-color="#FD0056"/>
</linearGradient>
<linearGradient id="paint2_linear_530_147" x1="13.9282" y1="6.07169" x2="15.4131" y2="4.58678" gradientUnits="userSpaceOnUse">
<stop stop-color="#F30072"/>
<stop offset="1" stop-color="#E50097"/>
</linearGradient>
</defs>
</svg>
