<svg id="Layer_1" data-name="Layer 1" xmlns="http://www.w3.org/2000/svg" viewBox="0 0 950 614.03"><defs><style>.cls-1{fill:#231f20;fill-rule:evenodd;}</style></defs><path class="cls-1" d="M483.3,143.07c-17.8,22-68.59,92.84-74.38,102-11.14,17.59-12.12,26.11-12.45,31.79s-.33,15.62,8.74,23.81C420.39,314.22,441.69,312,460.58,312H616.22c6.67,0,8.63-2,12.24-6.77,12.45-19,18-39.65,18-58.11,0-39.54-25.67-89.35-90.66-111.85l-7.31,10.49c51.55,24.47,72.85,56.47,72.85,101.25a64.26,64.26,0,0,1-10.71,37H459.27c-9.06,0-10.37-10.27-7.1-16.06a605.39,605.39,0,0,1,43.36-66.51C510.82,181.08,525.9,162,541.74,142c4.25-5.57,1.41-10.92-7.1-12.67A275,275,0,0,0,476.09,123c-124.18,0-169.62,71.33-169.62,124.19,0,57.34,45.76,123.86,170,123.86,68.92,0,114-22.18,140.13-50.68H590.23c-22.83,21.08-62,36-113.81,36-105.18,0-143.95-59.09-143.95-110C333.23,201,374.84,138.26,479,136.19c3.93-.11,7,3.5,4.26,6.88Z"/><path class="cls-1" d="M856.84,470.41c6.23.88,11,5.79,11,11.58,0,6.55-5.89,11.8-13.1,11.8H721.3V406.52H682V494H609.67c-19.55,0-23.59-11.9-23.59-22.82V406H520.87c-6.44,4.37-12.67,9.17-19.33,13.22L462.88,443l-50.25-36.7h-78.2v21.95h28.29v-12L429.24,464l-45.44,28.5H334.43v22h57.12c6.12-4.15,11.91-8.52,18.24-12.34L449.55,478,500,514h57.45l-75.91-57.12,39-25.45c8.3-5.46,17-10.05,25.55-15.07V473.8c0,24.24,6.23,41.06,55,41.06l275.79-.65c21.3.33,34.95-14.42,34.95-32.22s-15.73-32.22-34.95-32.22H777.33c1.31-12.13,11.79-22.28,22.39-22.28H900.53l-.33-21.08H793.28c-33.86,0-60.95,28.07-61.72,60.72-.11,2.3,1.43,3.72,3.94,3.72l121.34-.44Zm-522.41-.33V447.69h19.44v22.39Zm0-63.78H260.6c-20,0-35.39,5.24-46.75,14.2-20.43,16.16-27,33.2-26.76,40.85h26.65c-11.69,8.73-19.55,19.22-23.7,31.34H102.66c-15.73,0-25.89-11.14-25.89-21.95V405.53H38.11v67.72c0,24.36,23.15,41.18,60.29,41.18h236v-22H240.72c.43-11.14,12.34-22.39,23.15-22.39h70.56V447.69H239.62c-1.3-6.55,10.93-19.44,20.32-19.44h74.49V406.3Z"/></svg>