<svg width="20" height="20" viewBox="0 0 20 20" fill="none" xmlns="http://www.w3.org/2000/svg">
<path d="M4.289 2.10491C4.88198 2.21089 5.38124 2.58314 5.64663 3.11831C5.74123 3.30838 5.79904 3.50108 5.82707 3.72005C5.84634 3.87158 5.8402 4.12296 5.81393 4.27011C5.68605 4.99623 5.1535 5.57344 4.44228 5.76C4.30827 5.79504 4.1944 5.81081 4.03937 5.81781C3.30275 5.84759 2.62043 5.4403 2.29197 4.77375C2.03621 4.25522 2.03621 3.64648 2.29109 3.12707C2.57488 2.54986 3.11443 2.16885 3.76346 2.09002C3.8747 2.076 4.17426 2.08476 4.289 2.10491ZM14.3355 7.20435C14.8067 7.24989 15.2701 7.37427 15.6537 7.55908C15.9506 7.70185 16.2887 7.91995 16.5962 8.1687C16.9395 8.44636 17.1813 8.78621 17.4624 9.38532C17.6901 9.87056 17.8154 10.284 17.8802 10.7605C17.8942 10.8621 17.8951 11.1354 17.8977 14.3928L17.9004 17.9165H16.3019H14.7034V14.9534C14.7034 12.9528 14.7007 11.9613 14.6946 11.8991C14.621 11.1581 14.2812 10.6273 13.7031 10.3488C13.5664 10.2831 13.4754 10.2498 13.3317 10.213C12.7633 10.0668 12.0914 10.1491 11.5913 10.425C11.1262 10.6816 10.7759 11.208 10.6445 11.8466C10.5928 12.0988 10.5954 11.9245 10.5954 15.0497V17.9165H9.0013H7.40717V12.648V7.37953H8.90933H10.4115V8.13805V8.89569L10.4763 8.80898C10.6121 8.62592 10.8626 8.36403 11.0483 8.20987C11.7656 7.61339 12.687 7.24376 13.5787 7.19559C13.746 7.18683 14.2076 7.19209 14.3355 7.20435ZM5.60284 12.648V17.9165H3.9693H2.33576V12.648V7.37953H3.9693H5.60284V12.648Z" fill="#0A66C2"/>
</svg>
