<svg id="Layer_1" data-name="Layer 1" xmlns="http://www.w3.org/2000/svg" viewBox="0 0 950 385.95"><defs><style>.cls-1{fill:#231f20;fill-rule:evenodd;}</style></defs><path class="cls-1" d="M128.91,221.27c21.79,9.07,36.31,21.78,49.47,50.38,13.16-28.6,27.23-43.12,49.47-52.2l55.93-20c.11.48.23,1,.36,1.42a161.5,161.5,0,0,1,1.36,21.79c0,79-52.2,94.86-107.12,94.4-54.92.46-106.66-15.43-106.66-94.4,0-5.9,0-11.8.91-16.79l.81-3.35,55.47,18.78Zm142.83-54.76c-.4-.66-.81-1.32-1.22-2-19.52-29-54.92-35.85-92.14-35.85s-73.53,7.26-92.59,36.76c-.68,1.18-1.36,2.37-2.05,3.55,32.75,18.72,69.91,19.06,94.64,66.35,22.72-48.74,60.28-49.42,93.36-68.83Zm26.46-16.95L295,145.92c-29-31.31-76.71-38.12-116.65-38.12-40.39,0-89.41,6.81-118,39.94L59,149.56c-14.07,16.79-22.69,40.84-22.69,73.07,0,99.4,80.79,115.28,142.06,115.28,61.73,0,142.52-15.88,142.52-115.28,0-32.23-8.63-56.28-22.7-73.07Z"/><path class="cls-1" d="M592,245.45H563.77l-1.06,0-1.05-.21-1-.41-.89-.59-.79-.73-.62-.85-.48-1-.28-1-.09-1,.09-1.06.28-1,.48-1,.62-.85.79-.73.89-.59,1-.41,1.05-.21,1.06,0,28.22,0v11.72Zm99-65H627.07v25.92h32.26L691,180.45Zm-43.25,88.84h63.92V242.8H682l-34.28,26.49Zm100-26.36V206.74h22.36l1.85.06,1.87.16,1.84.3,1.81.37,1.23.43,1.12.6,1,.8.89.93.75,1.28.6,1.53.52,1.67.39,1.84.29,1.93.3,2,.09,2.14V225l-.09,2.14-.2,2-.19,2-.39,1.94-.48,1.83-.48,1.66-.68,1.44-.78,1.17-.77,1-.8.77-1.08.59-1.2.46-1.28.37-1.37.29-1.53.14-1.6,0-1.64,0-22.36,0Zm128.54-9.31v11.85H848.82l-1.23,0-1.19-.29-1.1-.51-1-.73-.8-.93-.6-1-.37-1.17-.13-1.21.13-1.21.37-1.16.59-1.07.8-.92,1-.73,1.1-.52,1.17-.28,1.23,0ZM717.66,269.29h67.8l2.57-.14,2.52-.37,2.49-.61,2.42-.81,2.33-1.05,2.23-1.25,2.1-1.46,2.06-1.72,1.89-1.91,1.71-2.08,1.2-1.81,1.09-1.89.92-2,.77-2,.62-2.09.52,1.88.66,1.83.78,1.78.91,1.73,1,1.67,1.14,1.58,1.24,1.5,1.36,1.4,1.44,1.3L823,264l1.62,1.09,1.69,1,1.74.85,1.82.73,1.85.6,1.9.47,1.9.34,1.94.19,2,.05h66.7V209.11L906,207l-.21-2-.36-2-.49-2-.66-2-.79-1.89-.92-1.83-1.07-1.76-1.17-1.67L899,190.3l-1.4-1.49-1.53-1.39-1.62-1.26L892.78,185,891,184l-1.87-.88-1.9-.74-2-.59-2-.46-2-.31-2-.16H817.74v24h49.54l1.29.06,1.21.48,1,.83.66,1.11.25,1.26-.18,1.28-.58,1.16L870,212l-1.16.55-1.28.14H839.25l-2,.07-2,.21-2,.38-2,.51-1.94.66-1.89.8-1.81.94-1.74,1.07-1.66,1.19-1.58,1.32-1.46,1.44-1.35,1.53-1.25,1.62-1.12,1.73-.27-7.07-.14-2-.14-2.14-.16-2.67-.29-2.63-.4-2.63-.54-2.6-.59-2.13-.69-2.1-.8-2.07-.89-2-1.08-1.83-1.21-1.74-1.36-1.64-1.44-1.47L803.83,188l-1.62-1.26-1.71-1.14-1.78-1-1.85-.91-1.92-.76-2-.72-2.06-.56-2.08-.47-2.1-.32H702.88l-81.06,64.55V209l-.1-2.33-.31-2.29-.47-2.28-.66-2.24-.86-2.17-1-2.08-1.18-2-1.33-1.91-1.49-1.78-1.62-1.67L611,186.71l-1.89-1.37-2-1.23-2.06-1.05-2.15-.89-2.23-.71-2.25-.53-2.3-.36-2.33-.16-2.33,0H533v24.42H587.1l.81,0,.81.18.74.34.64.5.56.6.4.71.25.77.07.82-.07.81-.25.77-.4.71-.56.61-.64.49-.74.34-.81.18-.81,0-32.76,0-2.27.09-2.26.29-2.24.44-2.19.64-2.12.8-2.06,1-2,1.14-1.87,1.3-1.78,1.42-1.63,1.59-1.52,1.69L531,225l-1.23,1.92-1.07,2V210.18l0-3.31-.43-3.28-.82-3.2-1.15-3.09-1.53-2.94-1.85-2.74-2.16-2.51-2.43-2.24-2.67-2-2.87-1.62L509.72,182l-3.16-.93-3.26-.55-3.31-.18H394.64v88.79h30.1v-62H446.8v62h29.32v-62h14.19l1.39.13,1.34.37,1.26.61,1.12.82,1,1,.77,1.16.53,1.28.3,1.35.06,1.4v53.87h30.7V253.39l1,2,1.21,1.92,1.35,1.83,1.52,1.69,1.65,1.59,1.78,1.42,1.89,1.28,2,1.12,2.06.94,2.14.79,2.21.6,2.24.41,2.26.23,2.27,0,80.56,0,82.76-65.57v65.57Z"/></svg>