<svg id="Layer_1" data-name="Layer 1" xmlns="http://www.w3.org/2000/svg" viewBox="0 0 950 950"><defs><style>.cls-1{fill:#ec1c24;}.cls-1,.cls-3{fill-rule:evenodd;}.cls-2{fill:none;stroke:#231f20;stroke-linecap:round;stroke-linejoin:round;stroke-width:0.68px;}.cls-3{fill:#231f20;}</style></defs><polygon class="cls-1" points="584.12 233.27 486.64 65.52 390.49 233.27 486.64 402.35 584.12 233.27 584.12 233.27"/><polygon class="cls-2" points="486.64 65.52 390.49 233.27 486.64 402.35 584.12 233.27 486.64 65.52 486.64 65.52"/><polygon class="cls-1" points="194.18 570.1 389.15 570.1 486.64 402.35 295.68 402.35 194.18 570.1 194.18 570.1"/><polygon class="cls-2" points="389.15 570.1 486.64 402.35 295.68 402.35 194.18 570.1 389.15 570.1 389.15 570.1"/><polygon class="cls-1" points="680.27 402.35 486.64 402.35 585.46 570.1 779.1 570.1 680.27 402.35 680.27 402.35"/><polygon class="cls-2" points="486.64 402.35 585.46 570.1 779.1 570.1 680.27 402.35 486.64 402.35 486.64 402.35"/><polygon class="cls-3" points="252.66 606.79 228.24 606.79 210.8 653.32 191.6 605.01 168.92 605.01 168.92 714.18 188.11 714.18 188.11 644.37 210.8 696.28 231.73 644.37 231.73 714.18 252.66 714.18 252.66 606.79 252.66 606.79"/><polygon class="cls-3" points="287.55 714.18 287.55 606.79 266.62 606.79 266.62 714.18 287.55 714.18 287.55 714.18"/><polygon class="cls-3" points="294.53 622.91 315.47 622.91 315.47 714.18 336.4 714.18 336.4 622.91 355.59 622.91 355.59 606.79 294.53 606.79 294.53 622.91 294.53 622.91"/><polygon class="cls-3" points="610.29 606.79 591.11 606.79 591.11 714.18 610.29 714.18 610.29 606.79 610.29 606.79"/><polygon class="cls-3" points="772.54 605.01 751.61 605.01 751.61 647.96 713.23 647.96 713.23 606.79 694.04 606.79 694.04 714.18 713.23 714.18 713.23 665.85 751.61 665.85 751.61 714.18 772.54 714.18 772.54 605.01 772.54 605.01"/><polygon class="cls-3" points="805.68 606.79 786.5 606.79 786.5 714.18 805.68 714.18 805.68 606.79 805.68 606.79"/><path class="cls-3" d="M416.65,619.31c-5.23-8.95-13.95-14.3-26.17-14.3-12.21-1.8-20.93,3.57-27.91,12.52-8.72,12.53-7,23.28,1.74,35.79l10.47,7.17c8.72,3.56,12.21,7.16,19.19,10.73,5.23,1.78,8.73,5.38,8.73,8.94,1.74,9,0,14.34-8.73,16.12-7,1.78-14,0-17.44-5.38-1.75-3.57-3.49-7.15-3.49-12.52H353.85c0,5.37,0,10.73,3.48,17.9A33.23,33.23,0,0,0,378.27,716c8.72,1.78,20.93,0,31.4-7.17s14-17.89,12.21-30.41c-1.74-8.94-8.72-16.11-17.44-21.48A110.39,110.39,0,0,1,387,646.15c-8.72-3.56-10.46-7.15-10.46-12.51Q373.91,622.9,387,622.91q13.08-2.7,15.71,16.09h17.44c0-7.14,0-14.31-3.49-19.69Z"/><path class="cls-3" d="M498.65,678.38V605h-19.2v75.15c0,10.74-5.23,17.9-15.69,17.9s-14-7.16-14-17.9V605H430.61v73.37c-1.74,25.07,8.72,37.58,33.15,37.58,22.67,1.78,34.89-10.73,34.89-37.58Z"/><path class="cls-3" d="M545.75,606.8,512.6,605V714.18h41.87c10.47,0,17.44-3.59,20.93-12.53,8.72-10.75,8.72-21.49,1.75-34-1.75-3.6-5.24-7.16-12.21-10.75,8.72-5.36,12.21-10.75,13.95-16.09,3.5-8.95,1.75-16.12-5.23-23.28C568.43,608.58,558,605,545.75,606.8Zm-14,16.11h14c7,0,12.2,3.57,12.2,12.51,1.76,7.17-1.74,10.73-8.72,12.54l-10.46,1.79v16.1h8.73c10.45,1.8,13.94,7.15,13.94,16.1,0,10.75-3.49,14.33-13.94,14.33H531.78V622.91Z"/><polygon class="cls-3" points="264.87 760.7 264.87 869.86 284.07 869.86 284.07 800.08 306.75 850.19 327.68 800.08 327.68 869.86 348.61 869.86 348.61 760.7 324.2 760.7 306.75 809.02 287.55 760.7 264.87 760.7 264.87 760.7"/><polygon class="cls-3" points="491.66 776.81 491.66 760.7 428.87 760.7 428.87 776.81 449.8 776.81 449.8 868.09 470.73 868.09 470.73 776.81 491.66 776.81 491.66 776.81"/><path class="cls-3" d="M594.6,778.6h10.46c12.21,0,17.45,5.38,17.45,16.11,0,12.52-7,17.9-20.94,17.9l26.17,55.48h22.68L626,823.34a1.73,1.73,0,0,1,1.74-1.78h1.75c10.46-5.39,15.69-16.11,14-30.43-1.75-21.48-14-32.21-40.12-30.43H575.4V868.09h19.2V778.6Z"/><path class="cls-3" d="M362.57,780.38c-10.47,17.9-12.21,37.6-7,57.3,7,21.45,19.19,32.18,38.38,32.18,17.45,0,31.4-8.94,36.64-30.4,8.72-19.68,8.72-39.38-1.74-57.28-8.73-16.1-19.2-23.26-33.16-23.26s-26.16,7.16-33.14,21.46Zm14,55.49c-5.24-12.53-5.24-25,0-41.16,1.74-10.73,8.72-16.11,19.18-16.11,8.73,0,15.71,5.38,17.45,17.9,5.23,17.89,3.49,32.23-1.74,44.74-3.49,7.17-8.72,12.53-17.45,12.53s-14-5.36-17.44-17.9Z"/><path class="cls-3" d="M486.43,839.46c7,21.46,19.19,32.21,38.39,30.4,17.44,1.81,31.39-8.94,38.37-28.62s7-39.36-3.48-59.06Q546.62,758,528.3,760.7c-15.7,0-26.17,5.38-34.89,19.68-10.47,19.7-12.21,39.4-7,59.08Zm20.94-44.75c3.49-9,8.72-14.33,19.18-14.33,8.73-1.78,15.71,5.38,19.2,17.9,3.48,16.11,3.48,30.45-1.75,43-5.23,9-10.46,12.53-19.18,12.53-7,0-14-5.36-17.45-16.09-5.24-12.56-5.24-26.85,0-43Z"/><path class="cls-3" d="M681.82,621.11c-5.23-10.75-14-16.1-26.16-14.31-12.22-1.79-20.94,1.78-27.92,12.51-8.73,10.75-7,23.28,1.75,34,1.74,3.58,5.23,5.38,10.46,8.95l19.19,9c5.24,3.58,8.73,7.16,8.73,10.73,1.74,7.16,0,12.55-8.73,16.11-7,1.79-12.21,0-17.45-7.16-1.74-1.79-3.48-7.15-3.48-10.74H619c0,5.39,1.76,10.74,3.5,16.12C626,707,633,714.18,643.44,716c8.72,3.58,20.94,1.78,31.41-5.37s13.94-17.89,12.21-30.43c-1.74-8.94-8.73-16.11-17.45-21.46L652.16,648c-8.72-3.59-10.47-9-10.47-12.54,0-7.16,1.75-10.73,10.47-12.51s14,3.57,15.71,17.9h17.45c0-8.95,0-14.33-3.5-19.7Z"/><path class="cls-3" d="M653.9,773.23c-7,12.53-7,23.27,3.49,35.79l8.73,7.15,19.2,10.75c5.23,1.81,8.72,5.37,8.72,9,1.74,9,0,14.32-8.72,17.9-7,0-12.21,0-15.71-7.15-3.49-3.6-5.23-7.16-5.23-12.55h-19.2c0,5.39,1.75,10.75,3.49,17.9a33.28,33.28,0,0,0,20.94,19.7c8.72,1.8,20.94,0,31.4-7.15s15.71-17.9,12.22-30.45c-1.74-9-7-14.29-17.45-21.46l-17.45-10.73c-8.72-3.6-10.46-7.17-10.46-12.55,0-7.15,1.74-10.73,10.46-10.73,8.73-1.79,15.71,3.58,15.71,16.11h17.45A25.32,25.32,0,0,0,708,775c-5.23-8.95-14-14.33-26.17-14.33-12.21-1.78-20.93,3.58-27.92,12.53Z"/></svg>