<svg id="Layer_1" data-name="Layer 1" xmlns="http://www.w3.org/2000/svg" viewBox="0 0 950 950"><g id="Layer_1-2" data-name="Layer 1"><g id="Nissan_Badge" data-name="Nissan Badge"><path d="M545.46,501.7a36.78,36.78,0,0,1-4.57.17h-87.3v20.3h88.82c.68,0,5.93,0,6.94-.17,18.1-1.69,26.39-16.75,26.39-29.94,0-13.54-8.62-28.09-25-29.61a66.27,66.27,0,0,0-7.1-.34h-58a29.29,29.29,0,0,1-6.42-.51c-4.57-1.18-6.26-5.24-6.26-8.63a8.68,8.68,0,0,1,6.42-8.46,24.13,24.13,0,0,1,6.1-.51h83.75V424H484a56.22,56.22,0,0,0-8.46.51c-14.55,2-24.7,13.7-24.7,28.59,0,12.18,7.61,26.4,24.36,28.76,3.05.34,7.28.34,9.14.34h56.51a28.58,28.58,0,0,1,4.06.17c6.43.85,8.63,5.59,8.63,9.82A9.47,9.47,0,0,1,545.46,501.7Z"/><path d="M380,501.7a35.32,35.32,0,0,1-4.4.17H288.12v20.3h88.82c.68,0,5.92,0,6.94-.17,18.1-1.69,26.39-16.75,26.39-29.94,0-13.54-8.62-28.09-25-29.61a66.27,66.27,0,0,0-7.1-.34h-58a29.46,29.46,0,0,1-6.43-.51c-4.56-1.18-6.26-5.24-6.26-8.63a8.69,8.69,0,0,1,6.43-8.46,24.09,24.09,0,0,1,6.09-.51h83.76V424H318.57a56.22,56.22,0,0,0-8.46.51c-14.55,2-24.7,13.7-24.7,28.59,0,12.18,7.61,26.4,24.36,28.76,3.05.34,7.28.34,9.14.34h56.51a28.58,28.58,0,0,1,4.06.17c6.43.85,8.63,5.59,8.63,9.82A9.32,9.32,0,0,1,380,501.7Z"/><rect x="220.61" y="423.36" width="22" height="99.32"/><polygon points="172.05 522.68 172.05 423.36 150.06 423.36 150.06 497.47 76.8 423.36 48.54 423.36 48.54 522.68 70.53 522.68 70.53 448.24 144.3 522.68 172.05 522.68"/><polygon points="879.45 423.36 879.45 497.47 806.18 423.36 777.93 423.36 777.93 522.68 799.92 522.68 799.92 448.24 873.52 522.68 901.27 522.68 901.27 423.36 879.45 423.36"/><path d="M663.39,423.36l-61.93,99.32h26.73l11-17.77h72.25l11,17.77H749l-61.93-99.32Zm36.71,62.77H650.53L675.4,446.2Z"/><path d="M170.87,367c44.32-129.43,166.48-216.4,304.2-216.4s260.05,87,304.21,216.4l.34,1h97V356.36l-40.27-4.73c-24.87-2.88-30.12-13.88-36.88-27.75l-1.69-3.39c-58.21-123.84-184.93-204-322.66-204-137.89,0-264.44,80.2-322.65,204.38l-1.69,3.39c-6.77,13.87-12,24.87-36.88,27.74L73.58,356.7v11.68h96.78Z"/><path d="M779.62,578.18l-.34,1C735,708.62,612.8,795.42,475.07,795.42s-260-87-304.2-216.4l-.34-1H73.75v11.67L114,594.42c24.87,2.87,30.11,13.87,36.88,27.75l1.69,3.38C210.8,749.74,337.52,829.93,475.24,829.93s264.45-80.19,322.65-204.21l1.7-3.39c6.76-13.87,12-24.87,36.88-27.74l40.27-4.74V578.17Z"/></g></g></svg>