<?xml version="1.0" encoding="UTF-8"?>
<svg id="Layer_1" data-name="Layer 1" xmlns="http://www.w3.org/2000/svg" viewBox="0 0 950 950">
  <defs>
    <style>
      .cls-1, .cls-2, .cls-3 {
        stroke-width: 0px;
      }

      .cls-1, .cls-3 {
        fill: #2e3192;
      }

      .cls-2 {
        fill: #ed1c24;
      }

      .cls-2, .cls-3 {
        fill-rule: evenodd;
      }
    </style>
  </defs>
  <path class="cls-2" d="M121.89,373.25l86.62,72.26s-21.24,16.31-44.76,16.31c-10.62,0-17.72-5.05-33.49-17.86-15.77-12.81-23.3-19.66-24.9-21.08-3.36-2.99-7.88,1.41-4.38,4.93,3.5,3.52,106.63,86.86,106.63,86.86,0,0-38.74,15.94-85.87,62.09l-86.57-72.25s21.24-16.31,44.76-16.31c10.62,0,17.72,5.05,33.49,17.86,15.77,12.81,23.3,19.66,24.9,21.08,3.36,2.99,7.88-1.41,4.38-4.93-3.5-3.52-106.63-86.86-106.63-86.86,0,0,38.69-15.94,85.81-62.09Z"/>
  <path class="cls-3" d="M292.12,498.14c-.19,1.8,2.07,12.8,17.57,12.8,11.55,0,14.45-4.42,14.45-8.06,0-21.42-76.97,0-76.97-48.86,0-29.93,27.79-40.45,56.97-40.45,64.65,0,60.31,38.2,60.31,38.2h-45.9c0-7.01-8.66-12.97-14.65-12.97-4.86,0-16.54,0-16.54,8.48,0,16.96,80.6,4.49,80.6,50.15,0,15.82-7.03,39.86-62.36,39.86-67.42,0-60.63-39.15-60.63-39.15h47.15Z"/>
  <rect class="cls-1" x="879.83" y="415.36" width="34.99" height="117.23"/>
  <polygon class="cls-3" points="746 532.59 746 415.36 780.42 415.36 780.42 459.31 822.27 415.36 871.57 415.36 816.98 469.88 871.2 532.59 821.69 532.59 780.42 487.22 780.42 532.59 746 532.59"/>
  <polygon class="cls-3" points="554.92 503.69 612.29 503.69 612.29 532.59 497.19 532.59 497.19 508.29 554.58 445.65 499.31 445.65 499.31 415.36 612.06 415.36 612.06 441.07 554.92 503.69"/>
  <path class="cls-3" d="M371.67,415.36h38.23s-.02,49.21-.02,72.67c0,14.64,10.94,20.9,21.78,20.87,10.82-.03,21.68-6.27,21.68-20.87,0-24.01-.03-72.67-.03-72.67h36.72v80.63c0,34.67-32.97,38.56-59.2,38.55-26.22,0-59.17-3.89-59.17-38.55v-80.63Z"/>
  <path class="cls-3" d="M618.89,415.36h38.23s-.02,49.21-.02,72.67c0,14.64,10.94,20.9,21.78,20.87,10.82-.03,21.68-6.27,21.68-20.87,0-24.01-.03-72.67-.03-72.67h36.72v80.63c0,34.67-32.97,38.56-59.2,38.55-26.22,0-59.17-3.89-59.17-38.55v-80.63Z"/>
</svg>