<svg xmlns="http://www.w3.org/2000/svg" viewBox="0 0 482.75 311.33"><g id="Layer_2" data-name="Layer 2"><g id="Layer_1-2" data-name="Layer 1"><path d="M348.71,15.28C318.83,5.67,281.66,0,241.37,0S163.89,5.67,134,15.28C54.58,40.83,0,93.86,0,155.17,0,241.4,108.06,311.33,241.4,311.33S482.75,241.4,482.75,155.17c0-61.31-54.61-114.34-134-139.89M241.37,244.17c-19.88,0-36.15-39.12-37.09-88.27a412.21,412.21,0,0,0,74.19,0c-1,49.18-17.21,88.27-37.1,88.27M206.79,117.44c5.43-34.51,18.86-58.93,34.58-58.93S270.52,83,275.93,117.44a380.18,380.18,0,0,1-69.14,0m90.3-2.61c-8.07-54.16-30-93-55.72-93s-47.65,38.81-55.71,93c-49-7.66-83.31-25.08-83.31-45.37,0-27.33,62.25-49.5,139-49.5s139,22.17,139,49.5c0,20.29-34.28,37.71-83.31,45.37M35.21,149.44c0-26.45,10.18-51.2,27.93-72.52a30.29,30.29,0,0,0-.3,4.46c0,33.26,50,61.52,119.6,71.91-.05,2.52-.09,5-.09,7.57,0,61.82,17.16,114.2,40.85,132.25-105.36-6.41-188-68.26-188-143.67m224.33,143.7c23.7-18.06,40.86-70.43,40.86-132.26,0-2.53,0-5-.09-7.57,69.63-10.39,119.58-38.66,119.58-71.9a31.68,31.68,0,0,0-.33-4.47c17.75,21.32,27.93,46.1,27.93,72.52,0,75.39-82.61,137.24-187.95,143.68"/></g></g></svg>