<svg width="61" height="60" viewBox="0 0 61 60" fill="none" xmlns="http://www.w3.org/2000/svg">
<circle opacity="0.1" cx="30.3281" cy="30" r="30" fill="#912210"/>
<path d="M29.5 48.0488C39.8553 48.0488 48.25 39.6542 48.25 29.2988C48.25 18.9435 39.8553 10.5488 29.5 10.5488C19.1447 10.5488 10.75 18.9435 10.75 29.2988C10.75 39.6542 19.1447 48.0488 29.5 48.0488Z" stroke="#912210" stroke-width="2.5"/>
<path d="M29.5 18.0488V40.5488M35.125 24.6113C35.125 22.0238 32.6069 19.9238 29.5 19.9238C26.3931 19.9238 23.875 22.0238 23.875 24.6113C23.875 27.1988 26.3931 29.2988 29.5 29.2988C32.6069 29.2988 35.125 31.3988 35.125 33.9863C35.125 36.5738 32.6069 38.6738 29.5 38.6738C26.3931 38.6738 23.875 36.5738 23.875 33.9863" stroke="#912210" stroke-width="2.5" stroke-linecap="round"/>
</svg>
