<svg width="60" height="60" viewBox="0 0 60 60" fill="none" xmlns="http://www.w3.org/2000/svg">
<circle opacity="0.1" cx="30" cy="30" r="30" fill="#912210"/>
<path d="M39.3478 30.2186C38.8153 34.653 35.911 36.4249 34.6566 37.7111C33.4003 39.0011 33.6253 39.258 33.7097 41.1499C33.7238 41.3839 33.6898 41.6184 33.6098 41.8388C33.5298 42.0593 33.4056 42.261 33.2446 42.4315C33.0837 42.6021 32.8896 42.7379 32.6742 42.8306C32.4588 42.9233 32.2267 42.9709 31.9922 42.9705H27.0085C26.7741 42.9701 26.5423 42.9219 26.3272 42.829C26.1121 42.736 25.9182 42.6002 25.7573 42.4299C25.5964 42.2595 25.4719 42.0581 25.3914 41.8381C25.3109 41.618 25.2761 41.3838 25.2891 41.1499C25.2891 39.2936 25.4616 38.8624 24.3441 37.7111C22.9191 36.2861 19.5666 34.2742 19.5666 28.7411C19.558 27.3667 19.8343 26.0055 20.3779 24.7432C20.9216 23.4809 21.7208 22.3449 22.7253 21.4068C23.7298 20.4687 24.9177 19.7488 26.2142 19.2927C27.5107 18.8365 28.8876 18.6538 30.2582 18.7562C31.6288 18.8585 32.9633 19.2437 34.1776 19.8875C35.392 20.5312 36.4598 21.4195 37.3137 22.4964C38.1677 23.5733 38.7893 24.8154 39.1394 26.1445C39.4895 27.4736 39.5605 28.8608 39.3478 30.2186Z" stroke="#912210" stroke-width="2" stroke-linecap="round" stroke-linejoin="round"/>
<path d="M26.6133 42.8665V45.7015C26.6133 46.4759 27.0445 47.1115 27.5752 47.1115H31.4245C31.9589 47.1115 32.3883 46.474 32.3883 45.7015V42.8665M28.0383 23.104C26.9312 23.1045 25.8696 23.5446 25.0869 24.3277C24.3042 25.1107 23.8645 26.1725 23.8645 27.2796M43.2483 29.119H46.687M39.787 17.8465L42.2264 15.4071M41.662 38.674L44.1014 41.1115M29.5008 11.2559V14.0365M16.8258 15.4052L19.2483 17.8465M14.9508 41.1115L17.3733 38.674M15.7533 29.119H12.3164" stroke="#912210" stroke-width="2.5" stroke-linecap="round" stroke-linejoin="round"/>
</svg>
